<?xml version="1.0" encoding="UTF-8"?>
<svg id="Layer_1" data-name="Layer 1" xmlns="http://www.w3.org/2000/svg" width="632.89" height="331.74" viewBox="0 0 632.89 331.74">
  <defs>
    <style>
      .cls-1 {
        fill: #354856;
      }

      .cls-2 {
        fill: #5c84a0;
      }

      .cls-2, .cls-3 {
        stroke: #354856;
        stroke-miterlimit: 10;
        stroke-width: 3px;
      }

      .cls-4 {
        fill: #fff;
        opacity: .25;
      }

      .cls-3 {
        fill: #6fcacd;
      }
    </style>
  </defs>
  <rect class="cls-3" x="1.5" y="1.5" width="629.89" height="328.74" rx="40.8" ry="40.8"/>
  <g>
    <path class="cls-1" d="M55.74,57.82l-.82-2.75h-6.83l-.82,2.75h-6.41l7.11-19.5h7.28l7.11,19.5h-6.63Zm-6.35-7.11h4.22l-2.04-6.94h-.11l-2.07,6.94Z"/>
    <path class="cls-1" d="M78.67,57.82l-8.19-9.47v9.47h-5.75v-19.5h5.47l8.19,9.61v-9.61h5.75v19.5h-5.47Z"/>
    <path class="cls-1" d="M88.62,57.82v-19.5h6.26v19.5h-6.26Z"/>
    <path class="cls-1" d="M116.11,57.82v-7.03c0-.87,.03-1.76,.1-2.68,.07-.92,.14-1.69,.21-2.31s.12-1.02,.14-1.19h-.11l-3.6,13.21h-4.9l-3.63-13.18h-.11c.02,.17,.07,.56,.16,1.18,.08,.61,.17,1.38,.24,2.3,.08,.92,.11,1.81,.11,2.68v7.03h-5.75v-19.5h8.84l2.95,11.25h.11l2.92-11.25h8.53v19.5h-6.21Z"/>
    <path class="cls-1" d="M139.17,57.82l-.82-2.75h-6.83l-.82,2.75h-6.41l7.11-19.5h7.28l7.11,19.5h-6.63Zm-6.35-7.11h4.22l-2.04-6.94h-.11l-2.07,6.94Z"/>
    <path class="cls-1" d="M173.28,38.93c.82,.41,1.47,.98,1.96,1.71,.48,.74,.72,1.56,.72,2.47,0,2.4-1.09,3.91-3.26,4.53v.11c2.47,.57,3.71,2.19,3.71,4.87,0,1.02-.25,1.92-.75,2.71-.5,.78-1.19,1.39-2.05,1.83-.87,.44-1.82,.65-2.86,.65h-13.15v-19.5h12.98c.98,0,1.88,.2,2.71,.61Zm-9.42,6.99h4.31c.42,0,.76-.15,1.03-.44,.27-.29,.41-.66,.41-1.09v-.28c0-.42-.14-.77-.42-1.06-.28-.29-.62-.44-1.02-.44h-4.31v3.32Zm0,7.37h4.76c.42,0,.76-.15,1.03-.44s.41-.66,.41-1.09v-.28c0-.43-.14-.8-.41-1.09-.27-.29-.62-.44-1.03-.44h-4.76v3.34Z"/>
    <path class="cls-1" d="M192.23,57.82l-.82-2.75h-6.83l-.82,2.75h-6.41l7.11-19.5h7.28l7.11,19.5h-6.63Zm-6.35-7.11h4.22l-2.04-6.94h-.11l-2.07,6.94Z"/>
    <path class="cls-1" d="M215.15,57.82l-8.19-9.47v9.47h-5.75v-19.5h5.47l8.19,9.61v-9.61h5.75v19.5h-5.47Z"/>
    <path class="cls-1" d="M238.02,38.32h7.77l-7,8.02,7.14,11.48h-7.4l-4.05-7.14-3.4,2.78v4.36h-6.26v-19.5h6.26v8.33l6.94-8.33Z"/>
  </g>
  <g>
    <path class="cls-1" d="M62.25,124.81c1.12,.55,2.01,1.33,2.67,2.34,.66,1,.99,2.13,.99,3.36,0,3.27-1.48,5.33-4.44,6.18v.15c3.37,.77,5.06,2.99,5.06,6.65,0,1.39-.34,2.62-1.02,3.69-.68,1.07-1.62,1.9-2.8,2.49-1.19,.59-2.49,.89-3.9,.89h-17.93v-26.59h17.7c1.34,0,2.57,.28,3.69,.83Zm-12.85,9.53h5.87c.57,0,1.04-.2,1.41-.6,.37-.4,.56-.9,.56-1.49v-.39c0-.57-.19-1.05-.58-1.45-.39-.4-.85-.6-1.39-.6h-5.87v4.52Zm0,10.05h6.49c.57,0,1.04-.2,1.41-.6,.37-.4,.56-.89,.56-1.49v-.39c0-.59-.19-1.09-.56-1.49-.37-.4-.84-.6-1.41-.6h-6.49v4.56Z"/>
    <path class="cls-1" d="M88.09,150.57l-1.12-3.75h-9.31l-1.12,3.75h-8.73l9.7-26.59h9.93l9.7,26.59h-9.04Zm-8.66-9.7h5.76l-2.78-9.47h-.15l-2.82,9.47Z"/>
    <path class="cls-1" d="M123.49,127.03c2.5,2.34,3.75,5.76,3.75,10.24s-1.25,7.9-3.75,10.24c-2.5,2.34-6.04,3.52-10.63,3.52s-8.12-1.17-10.61-3.5c-2.49-2.33-3.73-5.75-3.73-10.26s1.24-7.93,3.73-10.26c2.49-2.33,6.02-3.5,10.61-3.5s8.13,1.17,10.63,3.52Zm-14.8,4.52c-.95,1.11-1.43,2.6-1.43,4.48v2.47c0,1.88,.48,3.38,1.43,4.48,.95,1.11,2.34,1.66,4.17,1.66s3.23-.55,4.19-1.66c.97-1.11,1.45-2.6,1.45-4.48v-2.47c0-1.88-.48-3.37-1.45-4.48-.97-1.11-2.36-1.66-4.19-1.66s-3.22,.55-4.17,1.66Z"/>
    <path class="cls-1" d="M161.92,148.67c-1.89,1.57-4.62,2.36-8.17,2.36s-6.28-.79-8.17-2.36-2.84-4.02-2.84-7.34v-.35h8v.31c0,1.21,.23,2.07,.68,2.59,.45,.52,1.14,.77,2.07,.77s1.62-.26,2.07-.77c.45-.51,.68-1.38,.68-2.59v-17.31h8.54v17.35c0,3.32-.95,5.77-2.84,7.34Z"/>
    <path class="cls-1" d="M168.97,150.57v-7.69h8.19v7.69h-8.19Z"/>
    <path class="cls-1" d="M213.14,150.57v-10.09h-9.39v10.09h-8.54v-26.59h8.54v9.7h9.39v-9.7h8.54v26.59h-8.54Z"/>
    <path class="cls-1" d="M251.24,127.03c2.5,2.34,3.75,5.76,3.75,10.24s-1.25,7.9-3.75,10.24c-2.5,2.34-6.04,3.52-10.63,3.52s-8.12-1.17-10.61-3.5c-2.49-2.33-3.73-5.75-3.73-10.26s1.24-7.93,3.73-10.26c2.49-2.33,6.02-3.5,10.61-3.5s8.13,1.17,10.63,3.52Zm-14.8,4.52c-.95,1.11-1.43,2.6-1.43,4.48v2.47c0,1.88,.48,3.38,1.43,4.48,.95,1.11,2.34,1.66,4.17,1.66s3.23-.55,4.19-1.66c.97-1.11,1.45-2.6,1.45-4.48v-2.47c0-1.88-.48-3.37-1.45-4.48-.97-1.11-2.36-1.66-4.19-1.66s-3.22,.55-4.17,1.66Z"/>
    <path class="cls-1" d="M259.59,123.98h8.54v19.79h13.64v6.8h-22.18v-26.59Z"/>
    <path class="cls-1" d="M308.2,150.57v-9.58c0-1.18,.04-2.4,.14-3.65,.09-1.25,.19-2.3,.29-3.15,.1-.85,.17-1.39,.19-1.62h-.15l-4.91,18.01h-6.68l-4.95-17.97h-.15c.03,.23,.1,.77,.21,1.6,.12,.84,.22,1.88,.33,3.13,.1,1.25,.15,2.47,.15,3.65v9.58h-7.84v-26.59h12.06l4.02,15.34h.15l3.98-15.34h11.63v26.59h-8.46Z"/>
    <path class="cls-1" d="M321.84,123.98h22.99v6.38h-14.45v3.67h12.37v6.11h-12.37v4.06h14.72v6.38h-23.26v-26.59Z"/>
    <path class="cls-1" d="M369.3,125.58c2.19,1.38,3.31,3.42,3.36,6.12v.46h-8v-.15c0-.77-.28-1.42-.85-1.93-.57-.52-1.43-.77-2.59-.77s-2,.17-2.61,.5c-.61,.33-.91,.75-.91,1.24,0,.7,.41,1.21,1.24,1.55,.82,.34,2.15,.68,3.98,1.04,2.14,.44,3.9,.9,5.28,1.37,1.38,.48,2.58,1.26,3.61,2.34,1.03,1.08,1.56,2.55,1.58,4.41,0,3.14-1.06,5.47-3.19,6.99-2.13,1.52-4.97,2.28-8.52,2.28-4.15,0-7.38-.7-9.68-2.09s-3.46-3.85-3.46-7.38h8.08c0,1.34,.35,2.24,1.04,2.69,.7,.45,1.78,.68,3.25,.68,1.08,0,1.98-.12,2.69-.35,.71-.23,1.06-.71,1.06-1.43,0-.64-.39-1.13-1.18-1.45-.79-.32-2.07-.66-3.84-1.02-2.16-.46-3.96-.95-5.37-1.45-1.42-.5-2.65-1.33-3.71-2.49-1.06-1.16-1.58-2.73-1.58-4.71,0-2.91,1.13-5.06,3.38-6.43,2.25-1.38,5.11-2.07,8.56-2.07s6.2,.69,8.39,2.07Z"/>
  </g>
  <g>
    <path class="cls-1" d="M57.59,185.56c1.3,1.82,1.95,4.45,1.95,7.89s-.65,6.07-1.95,7.89c-1.3,1.82-3.56,2.73-6.76,2.73s-5.49-.91-6.79-2.73c-1.3-1.82-1.95-4.45-1.95-7.89s.65-6.07,1.95-7.89c1.3-1.82,3.57-2.73,6.79-2.73s5.46,.91,6.76,2.73Zm-8.97,2.49c-.44,.8-.66,2.1-.66,3.91v2.95c0,1.83,.22,3.14,.66,3.94,.44,.8,1.17,1.19,2.21,1.19s1.76-.4,2.18-1.19c.42-.79,.63-2.11,.63-3.94v-2.95c0-1.83-.21-3.14-.63-3.92s-1.14-1.18-2.18-1.18-1.77,.4-2.21,1.19Z"/>
    <path class="cls-1" d="M77.26,185.29c1.46,1.64,2.19,4.19,2.19,7.65,0,3.92-.72,6.75-2.16,8.5-1.44,1.75-3.69,2.63-6.73,2.63-2.49,0-4.48-.6-5.97-1.81-1.49-1.2-2.24-2.91-2.24-5.12h5.31v.21c0,.78,.24,1.42,.72,1.92,.48,.51,1.17,.76,2.09,.76s1.67-.32,2.19-.97c.53-.65,.79-1.52,.79-2.61v-1.73c-.58,.52-1.26,.91-2.06,1.16-.8,.26-1.55,.39-2.27,.39-1.37,0-2.61-.24-3.72-.73-1.1-.49-1.97-1.2-2.61-2.15-.64-.94-.96-2.08-.96-3.42,0-2.27,.78-4.03,2.34-5.28,1.56-1.25,3.69-1.88,6.37-1.88,3,0,5.24,.82,6.7,2.46Zm-8.89,2.33c-.51,.51-.76,1.23-.76,2.16s.25,1.66,.75,2.16c.5,.51,1.21,.76,2.15,.76s1.69-.24,2.19-.73,.76-1.2,.76-2.13-.25-1.67-.76-2.19-1.23-.79-2.16-.79-1.66,.25-2.16,.76Z"/>
    <path class="cls-1" d="M94.64,183.54c1.21,.48,2.17,1.17,2.88,2.07,.71,.91,1.06,1.99,1.06,3.27,0,1.05-.21,1.89-.63,2.51-.42,.62-1.04,1.22-1.88,1.82v.12c1.09,.62,1.91,1.28,2.46,1.98,.55,.71,.82,1.63,.82,2.76,0,1.93-.79,3.41-2.36,4.45-1.57,1.03-3.71,1.55-6.42,1.55s-4.83-.52-6.37-1.55c-1.54-1.03-2.31-2.52-2.31-4.45,0-1.13,.27-2.05,.81-2.76s1.35-1.37,2.45-1.98v-.12c-.84-.6-1.46-1.2-1.88-1.82-.42-.62-.63-1.45-.63-2.51,0-1.27,.35-2.36,1.04-3.27,.7-.91,1.65-1.6,2.85-2.07s2.55-.72,4.04-.72,2.84,.24,4.06,.72Zm-6.07,3.86c-.49,.37-.73,.94-.73,1.72s.25,1.32,.76,1.69,1.17,.55,1.98,.55,1.49-.18,2.03-.55,.81-.93,.81-1.69-.26-1.35-.78-1.72c-.52-.37-1.2-.55-2.06-.55s-1.53,.18-2.01,.55Zm.06,8.39c-.53,.43-.79,1.03-.79,1.81s.25,1.38,.75,1.8c.5,.43,1.16,.64,2,.64s1.52-.21,2.04-.64c.53-.43,.79-1.03,.79-1.8s-.27-1.38-.82-1.81c-.55-.43-1.22-.64-2.01-.64s-1.43,.21-1.95,.64Z"/>
    <path class="cls-1" d="M113.87,193.96c-1.3,2.57-1.95,5.23-1.95,8v1.76h-6.62c0-2.71,.58-5.37,1.75-7.98,1.16-2.62,2.74-5.09,4.73-7.42h-9.85v-5.13h17.31v2.72c-2.27,2.8-4.05,5.49-5.36,8.06Z"/>
    <path class="cls-1" d="M144.38,183.54c1.21,.48,2.17,1.17,2.88,2.07,.71,.91,1.06,1.99,1.06,3.27,0,1.05-.21,1.89-.63,2.51-.42,.62-1.04,1.22-1.88,1.82v.12c1.09,.62,1.91,1.28,2.46,1.98,.55,.71,.82,1.63,.82,2.76,0,1.93-.79,3.41-2.36,4.45-1.57,1.03-3.71,1.55-6.42,1.55s-4.83-.52-6.37-1.55c-1.54-1.03-2.31-2.52-2.31-4.45,0-1.13,.27-2.05,.81-2.76s1.35-1.37,2.45-1.98v-.12c-.84-.6-1.46-1.2-1.88-1.82-.42-.62-.63-1.45-.63-2.51,0-1.27,.35-2.36,1.04-3.27,.7-.91,1.65-1.6,2.85-2.07s2.55-.72,4.04-.72,2.84,.24,4.06,.72Zm-6.07,3.86c-.49,.37-.73,.94-.73,1.72s.25,1.32,.76,1.69,1.17,.55,1.98,.55,1.49-.18,2.03-.55,.81-.93,.81-1.69-.26-1.35-.78-1.72c-.52-.37-1.2-.55-2.06-.55s-1.53,.18-2.01,.55Zm.06,8.39c-.53,.43-.79,1.03-.79,1.81s.25,1.38,.75,1.8c.5,.43,1.16,.64,2,.64s1.52-.21,2.04-.64c.53-.43,.79-1.03,.79-1.8s-.27-1.38-.82-1.81c-.55-.43-1.22-.64-2.01-.64s-1.43,.21-1.95,.64Z"/>
    <path class="cls-1" d="M164.29,183.54c1.21,.48,2.17,1.17,2.88,2.07,.71,.91,1.06,1.99,1.06,3.27,0,1.05-.21,1.89-.63,2.51-.42,.62-1.04,1.22-1.88,1.82v.12c1.09,.62,1.91,1.28,2.46,1.98,.55,.71,.82,1.63,.82,2.76,0,1.93-.79,3.41-2.36,4.45-1.57,1.03-3.71,1.55-6.42,1.55s-4.83-.52-6.37-1.55c-1.54-1.03-2.31-2.52-2.31-4.45,0-1.13,.27-2.05,.81-2.76s1.35-1.37,2.45-1.98v-.12c-.84-.6-1.46-1.2-1.88-1.82-.42-.62-.63-1.45-.63-2.51,0-1.27,.35-2.36,1.04-3.27,.7-.91,1.65-1.6,2.85-2.07s2.55-.72,4.04-.72,2.84,.24,4.06,.72Zm-6.07,3.86c-.49,.37-.73,.94-.73,1.72s.25,1.32,.76,1.69,1.17,.55,1.98,.55,1.49-.18,2.03-.55,.81-.93,.81-1.69-.26-1.35-.78-1.72c-.52-.37-1.2-.55-2.06-.55s-1.53,.18-2.01,.55Zm.06,8.39c-.53,.43-.79,1.03-.79,1.81s.25,1.38,.75,1.8c.5,.43,1.16,.64,2,.64s1.52-.21,2.04-.64c.53-.43,.79-1.03,.79-1.8s-.27-1.38-.82-1.81c-.55-.43-1.22-.64-2.01-.64s-1.43,.21-1.95,.64Z"/>
    <path class="cls-1" d="M184.74,183.59c1.18,.51,2.1,1.23,2.75,2.16,.65,.94,.97,2.02,.97,3.25,0,1.15-.29,2.2-.87,3.13-.58,.93-1.3,1.76-2.18,2.48-.88,.72-2.08,1.59-3.61,2.63-.86,.56-1.55,1.03-2.09,1.43h8.98v5.04h-17.01v-1.43c0-1.05,.24-1.99,.73-2.82,.49-.83,1.2-1.66,2.13-2.49,.95-.84,2.33-1.97,4.12-3.4,1.43-1.13,2.44-2,3.01-2.6s.87-1.18,.87-1.76c0-.62-.21-1.13-.64-1.55-.43-.42-1.07-.63-1.92-.63s-1.6,.26-2.12,.78c-.52,.52-.78,1.19-.78,2.03v.6h-5.31c-.02-.16-.03-.38-.03-.66,0-2.15,.75-3.84,2.25-5.09,1.5-1.24,3.69-1.86,6.55-1.86,1.61,0,3.01,.25,4.19,.76Z"/>
    <path class="cls-1" d="M204.5,183.57c1.2,.5,2.12,1.17,2.75,2.01,.63,.85,.94,1.79,.94,2.82s-.28,1.96-.84,2.79c-.56,.83-1.27,1.41-2.15,1.75v.12c1.13,.36,2.01,.98,2.64,1.87s.94,1.95,.94,3.21c-.08,1.75-.84,3.18-2.28,4.28-1.44,1.1-3.57,1.66-6.37,1.66-1.93,0-3.55-.26-4.86-.78-1.31-.52-2.29-1.22-2.92-2.12-.64-.9-.96-1.9-.96-3.01v-.63h5.25c0,1.63,1.03,2.45,3.1,2.45s3.1-.91,3.1-2.75c0-.7-.19-1.23-.58-1.6-.39-.37-.89-.55-1.51-.55h-2.18v-3.67h1.7c.62,0,1.12-.18,1.51-.55,.39-.37,.58-.9,.58-1.6,0-.66-.23-1.21-.7-1.67-.47-.46-1.11-.69-1.92-.69-.86,0-1.52,.22-2,.66-.48,.44-.72,.98-.72,1.61h-4.98v-.75c0-1.03,.32-1.98,.97-2.83,.65-.85,1.59-1.53,2.83-2.03,1.24-.5,2.71-.75,4.4-.75s3.05,.25,4.25,.75Z"/>
    <path class="cls-1" d="M238.59,199.12v4.6h-15.49v-4.6h4.86v-9.28h-4.86v-3.46c1.33-.08,2.82-.43,4.48-1.06s3.09-1.35,4.33-2.16h2v15.96h4.69Z"/>
    <path class="cls-1" d="M254.39,183.59c1.18,.51,2.1,1.23,2.75,2.16,.65,.94,.97,2.02,.97,3.25,0,1.15-.29,2.2-.87,3.13-.58,.93-1.3,1.76-2.18,2.48-.88,.72-2.08,1.59-3.61,2.63-.86,.56-1.55,1.03-2.09,1.43h8.98v5.04h-17.01v-1.43c0-1.05,.24-1.99,.73-2.82,.49-.83,1.2-1.66,2.13-2.49,.95-.84,2.33-1.97,4.12-3.4,1.43-1.13,2.44-2,3.01-2.6s.87-1.18,.87-1.76c0-.62-.21-1.13-.64-1.55-.43-.42-1.07-.63-1.92-.63s-1.6,.26-2.12,.78c-.52,.52-.78,1.19-.78,2.03v.6h-5.31c-.02-.16-.03-.38-.03-.66,0-2.15,.75-3.84,2.25-5.09,1.5-1.24,3.69-1.86,6.55-1.86,1.61,0,3.01,.25,4.19,.76Z"/>
    <path class="cls-1" d="M274.15,183.57c1.2,.5,2.12,1.17,2.75,2.01,.63,.85,.94,1.79,.94,2.82s-.28,1.96-.83,2.79c-.56,.83-1.27,1.41-2.15,1.75v.12c1.13,.36,2.01,.98,2.64,1.87s.94,1.95,.94,3.21c-.08,1.75-.84,3.18-2.28,4.28-1.44,1.1-3.57,1.66-6.37,1.66-1.93,0-3.55-.26-4.86-.78-1.31-.52-2.29-1.22-2.92-2.12-.64-.9-.96-1.9-.96-3.01v-.63h5.25c0,1.63,1.03,2.45,3.1,2.45s3.1-.91,3.1-2.75c0-.7-.19-1.23-.58-1.6-.39-.37-.89-.55-1.51-.55h-2.18v-3.67h1.7c.62,0,1.12-.18,1.51-.55s.58-.9,.58-1.6c0-.66-.23-1.21-.7-1.67-.47-.46-1.11-.69-1.93-.69-.86,0-1.52,.22-2,.66-.48,.44-.72,.98-.72,1.61h-4.98v-.75c0-1.03,.32-1.98,.97-2.83,.65-.85,1.59-1.53,2.83-2.03,1.24-.5,2.71-.75,4.4-.75s3.05,.25,4.25,.75Z"/>
    <path class="cls-1" d="M294.2,183.59c1.18,.51,2.1,1.23,2.75,2.16,.65,.94,.97,2.02,.97,3.25,0,1.15-.29,2.2-.87,3.13-.58,.93-1.3,1.76-2.18,2.48-.88,.72-2.08,1.59-3.61,2.63-.86,.56-1.55,1.03-2.09,1.43h8.98v5.04h-17.01v-1.43c0-1.05,.24-1.99,.73-2.82,.49-.83,1.2-1.66,2.13-2.49,.96-.84,2.33-1.97,4.12-3.4,1.43-1.13,2.44-2,3.01-2.6s.87-1.18,.87-1.76c0-.62-.21-1.13-.64-1.55s-1.07-.63-1.92-.63-1.6,.26-2.12,.78c-.52,.52-.78,1.19-.78,2.03v.6h-5.31c-.02-.16-.03-.38-.03-.66,0-2.15,.75-3.84,2.25-5.09,1.5-1.24,3.68-1.86,6.55-1.86,1.61,0,3.01,.25,4.19,.76Z"/>
    <path class="cls-1" d="M324.04,183.59c1.18,.51,2.1,1.23,2.75,2.16,.65,.94,.97,2.02,.97,3.25,0,1.15-.29,2.2-.87,3.13-.58,.93-1.3,1.76-2.18,2.48-.88,.72-2.08,1.59-3.61,2.63-.86,.56-1.55,1.03-2.09,1.43h8.98v5.04h-17.01v-1.43c0-1.05,.24-1.99,.73-2.82,.49-.83,1.2-1.66,2.13-2.49,.96-.84,2.33-1.97,4.12-3.4,1.43-1.13,2.44-2,3.01-2.6s.87-1.18,.87-1.76c0-.62-.21-1.13-.64-1.55s-1.07-.63-1.92-.63-1.6,.26-2.12,.78c-.52,.52-.78,1.19-.78,2.03v.6h-5.31c-.02-.16-.03-.38-.03-.66,0-2.15,.75-3.84,2.25-5.09,1.5-1.24,3.68-1.86,6.55-1.86,1.61,0,3.01,.25,4.19,.76Z"/>
    <path class="cls-1" d="M343.8,183.57c1.2,.5,2.12,1.17,2.75,2.01,.63,.85,.94,1.79,.94,2.82s-.28,1.96-.83,2.79c-.56,.83-1.27,1.41-2.15,1.75v.12c1.13,.36,2.01,.98,2.64,1.87s.94,1.95,.94,3.21c-.08,1.75-.84,3.18-2.28,4.28-1.44,1.1-3.57,1.66-6.37,1.66-1.93,0-3.55-.26-4.86-.78-1.31-.52-2.29-1.22-2.92-2.12-.64-.9-.96-1.9-.96-3.01v-.63h5.25c0,1.63,1.03,2.45,3.1,2.45s3.1-.91,3.1-2.75c0-.7-.19-1.23-.58-1.6-.39-.37-.89-.55-1.51-.55h-2.18v-3.67h1.7c.62,0,1.12-.18,1.51-.55s.58-.9,.58-1.6c0-.66-.23-1.21-.7-1.67-.47-.46-1.11-.69-1.92-.69-.86,0-1.52,.22-2,.66-.48,.44-.72,.98-.72,1.61h-4.98v-.75c0-1.03,.32-1.98,.97-2.83,.65-.85,1.59-1.53,2.83-2.03,1.24-.5,2.71-.75,4.4-.75s3.05,.25,4.25,.75Z"/>
    <path class="cls-1" d="M360.16,186.69c-.82,1.54-1.79,3.08-2.91,4.62-1.12,1.54-2.17,2.81-3.15,3.8h5.91v-4.27c.62-.88,1.24-1.91,1.88-3.1,.64-1.19,1.05-2.18,1.25-2.96h2.54v10.33h2.86v4.39h-2.86v4.21h-5.67v-4.21h-10v-4.45c1.07-1.55,2.14-3.43,3.19-5.64s1.9-4.41,2.54-6.59h5.85c-.14,1.03-.62,2.32-1.43,3.86Z"/>
    <path class="cls-1" d="M380.07,186.69c-.82,1.54-1.79,3.08-2.91,4.62-1.12,1.54-2.17,2.81-3.15,3.8h5.91v-4.27c.62-.88,1.24-1.91,1.88-3.1,.64-1.19,1.05-2.18,1.25-2.96h2.54v10.33h2.86v4.39h-2.86v4.21h-5.67v-4.21h-10v-4.45c1.07-1.55,2.14-3.43,3.19-5.64s1.9-4.41,2.54-6.59h5.85c-.14,1.03-.62,2.32-1.43,3.86Z"/>
  </g>
  <g>
    <path class="cls-1" d="M48.51,248.27l-.35-1.16h-2.89l-.35,1.16h-2.71l3.01-8.26h3.08l3.01,8.26h-2.81Zm-2.69-3.01h1.79l-.86-2.94h-.05l-.88,2.94Z"/>
    <path class="cls-1" d="M58.94,240.79c.71,.61,1.07,1.49,1.07,2.62h-2.53c0-.48-.13-.86-.38-1.14-.25-.28-.61-.42-1.07-.42-.54,0-.93,.17-1.18,.5s-.38,.8-.38,1.4v.77c0,.59,.13,1.06,.38,1.4s.64,.51,1.16,.51,.9-.13,1.16-.4c.26-.26,.4-.64,.4-1.12h2.45c0,1.13-.35,1.99-1.04,2.59-.69,.6-1.67,.9-2.93,.9-1.41,0-2.47-.36-3.2-1.08-.72-.72-1.09-1.78-1.09-3.19s.36-2.47,1.09-3.19c.72-.72,1.79-1.08,3.2-1.08,1.22,0,2.19,.31,2.9,.92Z"/>
    <path class="cls-1" d="M68.27,240.79c.71,.61,1.07,1.49,1.07,2.62h-2.53c0-.48-.13-.86-.38-1.14-.25-.28-.61-.42-1.07-.42-.54,0-.93,.17-1.18,.5s-.38,.8-.38,1.4v.77c0,.59,.13,1.06,.38,1.4s.64,.51,1.16,.51,.9-.13,1.16-.4c.26-.26,.4-.64,.4-1.12h2.45c0,1.13-.35,1.99-1.04,2.59-.69,.6-1.67,.9-2.93,.9-1.41,0-2.47-.36-3.2-1.08-.72-.72-1.09-1.78-1.09-3.19s.36-2.47,1.09-3.19c.72-.72,1.79-1.08,3.2-1.08,1.22,0,2.19,.31,2.9,.92Z"/>
    <path class="cls-1" d="M78.17,240.96c.78,.73,1.16,1.79,1.16,3.18s-.39,2.45-1.16,3.18c-.78,.73-1.88,1.09-3.3,1.09s-2.52-.36-3.29-1.09c-.77-.72-1.16-1.79-1.16-3.19s.39-2.46,1.16-3.19c.77-.72,1.87-1.09,3.29-1.09s2.52,.36,3.3,1.09Zm-4.6,1.4c-.3,.34-.44,.81-.44,1.39v.77c0,.58,.15,1.05,.44,1.39,.3,.34,.73,.52,1.3,.52s1-.17,1.3-.52c.3-.34,.45-.81,.45-1.39v-.77c0-.58-.15-1.05-.45-1.39-.3-.34-.73-.52-1.3-.52s-1,.17-1.3,.52Z"/>
    <path class="cls-1" d="M87.92,247.53c-.71,.59-1.72,.89-3.04,.89s-2.33-.3-3.04-.89-1.07-1.45-1.07-2.58v-4.93h2.65v4.9c0,.46,.12,.83,.37,1.11,.25,.28,.61,.41,1.08,.41s.83-.14,1.09-.42,.38-.65,.38-1.1v-4.9h2.65v4.93c0,1.13-.36,1.99-1.07,2.58Z"/>
    <path class="cls-1" d="M96.66,248.27l-3.47-4.01v4.01h-2.44v-8.26h2.32l3.47,4.07v-4.07h2.44v8.26h-2.32Z"/>
    <path class="cls-1" d="M105.51,242.13v6.14h-2.65v-6.14h-2.71v-2.11h8.06v2.11h-2.7Z"/>
    <path class="cls-1" d="M119.32,248.27l-3.47-4.01v4.01h-2.44v-8.26h2.32l3.47,4.07v-4.07h2.44v8.26h-2.32Z"/>
    <path class="cls-1" d="M130.56,247.53c-.71,.59-1.72,.89-3.04,.89s-2.33-.3-3.04-.89-1.07-1.45-1.07-2.58v-4.93h2.65v4.9c0,.46,.12,.83,.37,1.11,.25,.28,.61,.41,1.08,.41s.83-.14,1.09-.42,.38-.65,.38-1.1v-4.9h2.65v4.93c0,1.13-.36,1.99-1.07,2.58Z"/>
    <path class="cls-1" d="M140.5,248.27v-2.98c0-.37,.01-.75,.04-1.13,.03-.39,.06-.71,.09-.98,.03-.26,.05-.43,.06-.5h-.05l-1.52,5.59h-2.08l-1.54-5.58h-.05c0,.07,.03,.24,.07,.5,.04,.26,.07,.58,.1,.97,.03,.39,.05,.77,.05,1.13v2.98h-2.44v-8.26h3.74l1.25,4.76h.05l1.24-4.76h3.61v8.26h-2.63Z"/>
    <path class="cls-1" d="M151.38,240.27c.35,.17,.62,.41,.83,.73,.2,.31,.31,.66,.31,1.04,0,1.02-.46,1.66-1.38,1.92v.05c1.05,.24,1.57,.93,1.57,2.06,0,.43-.11,.81-.32,1.15s-.5,.59-.87,.77c-.37,.18-.77,.28-1.21,.28h-5.57v-8.26h5.5c.42,0,.8,.09,1.15,.26Zm-3.99,2.96h1.82c.18,0,.32-.06,.44-.19,.12-.12,.17-.28,.17-.46v-.12c0-.18-.06-.33-.18-.45s-.26-.19-.43-.19h-1.82v1.4Zm0,3.12h2.02c.18,0,.32-.06,.44-.19,.12-.12,.17-.28,.17-.46v-.12c0-.18-.06-.34-.17-.46-.12-.12-.26-.19-.44-.19h-2.02v1.42Z"/>
    <path class="cls-1" d="M154.07,240.02h7.14v1.98h-4.49v1.14h3.84v1.9h-3.84v1.26h4.57v1.98h-7.22v-8.26Z"/>
    <path class="cls-1" d="M170.16,243.92c-.27,.41-.67,.71-1.19,.9l1.84,3.46h-2.98l-1.46-3.01h-.98v3.01h-2.65v-8.26h5.05c.59,0,1.1,.11,1.52,.34,.42,.23,.74,.54,.95,.92,.21,.39,.32,.81,.32,1.27,0,.5-.14,.96-.41,1.37Zm-2.51-1.8c-.14-.14-.32-.22-.53-.22h-1.74v1.52h1.74c.21,0,.38-.07,.53-.22,.14-.15,.22-.33,.22-.55s-.07-.4-.22-.54Z"/>
  </g>
  <g>
    <path class="cls-1" d="M53.68,270.27v2.95h-9.95v-2.95h3.13v-5.96h-3.13v-2.22c.86-.05,1.82-.28,2.88-.68s1.99-.86,2.78-1.39h1.28v10.26h3.01Z"/>
    <path class="cls-1" d="M63.83,260.29c.76,.33,1.35,.79,1.76,1.39s.62,1.3,.62,2.09c0,.74-.19,1.41-.56,2.01s-.84,1.13-1.4,1.59-1.34,1.02-2.32,1.69c-.55,.36-1,.66-1.34,.92h5.77v3.24h-10.93v-.92c0-.68,.16-1.28,.47-1.81,.31-.53,.77-1.06,1.37-1.6,.61-.54,1.49-1.27,2.65-2.19,.92-.73,1.57-1.28,1.94-1.67s.56-.76,.56-1.13c0-.4-.14-.73-.41-1-.28-.27-.69-.4-1.24-.4s-1.03,.17-1.36,.5c-.33,.33-.5,.77-.5,1.3v.38h-3.41c-.01-.1-.02-.24-.02-.42,0-1.38,.48-2.47,1.45-3.27,.96-.8,2.37-1.2,4.21-1.2,1.04,0,1.93,.16,2.69,.49Z"/>
    <path class="cls-1" d="M76.52,260.28c.77,.32,1.36,.75,1.76,1.29s.6,1.15,.6,1.81-.18,1.26-.54,1.79-.82,.9-1.38,1.12v.08c.73,.23,1.29,.63,1.7,1.2,.4,.57,.6,1.26,.6,2.06-.05,1.12-.54,2.04-1.47,2.75-.93,.71-2.29,1.06-4.09,1.06-1.24,0-2.28-.17-3.13-.5s-1.47-.79-1.88-1.36c-.41-.58-.61-1.22-.61-1.94v-.4h3.37c0,1.05,.66,1.57,1.99,1.57s1.99-.59,1.99-1.76c0-.45-.12-.79-.37-1.03-.25-.24-.57-.35-.97-.35h-1.4v-2.36h1.09c.4,0,.72-.12,.97-.35,.25-.24,.37-.58,.37-1.03,0-.42-.15-.78-.45-1.07-.3-.29-.71-.44-1.24-.44s-.98,.14-1.28,.42-.46,.63-.46,1.04h-3.2v-.48c0-.66,.21-1.27,.62-1.82,.42-.55,1.02-.98,1.82-1.3,.8-.32,1.74-.48,2.83-.48s1.96,.16,2.73,.48Z"/>
    <path class="cls-1" d="M89.31,260.28c.77,.32,1.36,.75,1.76,1.29s.6,1.15,.6,1.81-.18,1.26-.54,1.79-.82,.9-1.38,1.12v.08c.73,.23,1.29,.63,1.7,1.2,.4,.57,.6,1.26,.6,2.06-.05,1.12-.54,2.04-1.47,2.75-.93,.71-2.29,1.06-4.09,1.06-1.24,0-2.28-.17-3.13-.5s-1.47-.79-1.88-1.36c-.41-.58-.61-1.22-.61-1.94v-.4h3.37c0,1.05,.66,1.57,1.99,1.57s1.99-.59,1.99-1.76c0-.45-.12-.79-.37-1.03-.25-.24-.57-.35-.97-.35h-1.4v-2.36h1.09c.4,0,.72-.12,.97-.35,.25-.24,.37-.58,.37-1.03,0-.42-.15-.78-.45-1.07-.3-.29-.71-.44-1.24-.44s-.98,.14-1.28,.42-.46,.63-.46,1.04h-3.2v-.48c0-.66,.21-1.27,.62-1.82,.42-.55,1.02-.98,1.82-1.3,.8-.32,1.74-.48,2.83-.48s1.96,.16,2.73,.48Z"/>
    <path class="cls-1" d="M102.19,260.29c.76,.33,1.35,.79,1.76,1.39s.62,1.3,.62,2.09c0,.74-.19,1.41-.56,2.01s-.84,1.13-1.4,1.59-1.34,1.02-2.32,1.69c-.55,.36-1,.66-1.34,.92h5.77v3.24h-10.93v-.92c0-.68,.16-1.28,.47-1.81,.31-.53,.77-1.06,1.37-1.6,.61-.54,1.49-1.27,2.65-2.19,.92-.73,1.57-1.28,1.94-1.67s.56-.76,.56-1.13c0-.4-.14-.73-.41-1-.28-.27-.69-.4-1.24-.4s-1.03,.17-1.36,.5c-.33,.33-.5,.77-.5,1.3v.38h-3.41c-.01-.1-.02-.24-.02-.42,0-1.38,.48-2.47,1.45-3.27,.96-.8,2.37-1.2,4.21-1.2,1.04,0,1.93,.16,2.69,.49Z"/>
    <path class="cls-1" d="M117.61,270.27v2.95h-9.95v-2.95h3.13v-5.96h-3.13v-2.22c.86-.05,1.82-.28,2.88-.68s1.99-.86,2.78-1.39h1.28v10.26h3.01Z"/>
    <path class="cls-1" d="M129.19,261.56c.84,1.17,1.26,2.86,1.26,5.07s-.42,3.9-1.26,5.07c-.84,1.17-2.28,1.75-4.34,1.75s-3.52-.58-4.36-1.75c-.84-1.17-1.26-2.86-1.26-5.07s.42-3.9,1.26-5.07c.84-1.17,2.29-1.76,4.36-1.76s3.51,.59,4.34,1.76Zm-5.76,1.6c-.28,.51-.42,1.35-.42,2.51v1.9c0,1.18,.14,2.02,.42,2.53,.28,.51,.75,.77,1.42,.77s1.13-.26,1.4-.77c.27-.51,.4-1.35,.4-2.53v-1.9c0-1.18-.13-2.02-.4-2.52-.27-.51-.73-.76-1.4-.76s-1.14,.26-1.42,.77Z"/>
    <path class="cls-1" d="M140.55,260.29c.76,.33,1.35,.79,1.76,1.39s.62,1.3,.62,2.09c0,.74-.19,1.41-.56,2.01s-.84,1.13-1.4,1.59-1.34,1.02-2.32,1.69c-.55,.36-1,.66-1.34,.92h5.77v3.24h-10.93v-.92c0-.68,.16-1.28,.47-1.81,.31-.53,.77-1.06,1.37-1.6,.61-.54,1.49-1.27,2.65-2.19,.92-.73,1.57-1.28,1.94-1.67s.56-.76,.56-1.13c0-.4-.14-.73-.41-1-.28-.27-.69-.4-1.24-.4s-1.03,.17-1.36,.5c-.33,.33-.5,.77-.5,1.3v.38h-3.41c-.01-.1-.02-.24-.02-.42,0-1.38,.48-2.47,1.45-3.27,.96-.8,2.37-1.2,4.21-1.2,1.04,0,1.93,.16,2.69,.49Z"/>
    <path class="cls-1" d="M154.61,261.38c.94,1.05,1.41,2.69,1.41,4.92,0,2.52-.46,4.34-1.39,5.46s-2.37,1.69-4.32,1.69c-1.6,0-2.88-.39-3.83-1.16s-1.44-1.87-1.44-3.29h3.41v.13c0,.5,.15,.91,.46,1.24s.75,.49,1.34,.49,1.07-.21,1.41-.62c.34-.42,.51-.97,.51-1.68v-1.11c-.37,.33-.81,.58-1.32,.75-.51,.17-1,.25-1.46,.25-.88,0-1.68-.16-2.39-.47-.71-.31-1.27-.77-1.68-1.38-.41-.61-.61-1.34-.61-2.19,0-1.46,.5-2.59,1.5-3.39,1-.81,2.37-1.21,4.09-1.21,1.93,0,3.36,.53,4.3,1.58Zm-5.71,1.5c-.33,.33-.49,.79-.49,1.39s.16,1.06,.48,1.39c.32,.33,.78,.49,1.38,.49s1.08-.16,1.41-.47,.49-.77,.49-1.37-.16-1.07-.49-1.41-.79-.51-1.39-.51-1.06,.16-1.39,.49Z"/>
    <path class="cls-1" d="M166.03,260.28c.77,.32,1.36,.75,1.76,1.29s.6,1.15,.6,1.81-.18,1.26-.54,1.79-.82,.9-1.38,1.12v.08c.73,.23,1.29,.63,1.7,1.2,.4,.57,.6,1.26,.6,2.06-.05,1.12-.54,2.04-1.47,2.75-.93,.71-2.29,1.06-4.09,1.06-1.24,0-2.28-.17-3.13-.5s-1.47-.79-1.88-1.36c-.41-.58-.61-1.22-.61-1.94v-.4h3.37c0,1.05,.66,1.57,1.99,1.57s1.99-.59,1.99-1.76c0-.45-.12-.79-.37-1.03-.25-.24-.57-.35-.97-.35h-1.4v-2.36h1.09c.4,0,.72-.12,.97-.35,.25-.24,.37-.58,.37-1.03,0-.42-.15-.78-.45-1.07-.3-.29-.71-.44-1.24-.44s-.98,.14-1.28,.42-.46,.63-.46,1.04h-3.2v-.48c0-.66,.21-1.27,.62-1.82,.42-.55,1.02-.98,1.82-1.3,.8-.32,1.74-.48,2.83-.48s1.96,.16,2.73,.48Z"/>
  </g>
  <rect class="cls-2" x="495.75" y="129.82" width="97.7" height="66.29" rx="17.45" ry="17.45"/>
  <polygon class="cls-4" points="339.38 1.5 490.01 330.24 519.89 330.24 373.4 1.5 339.38 1.5"/>
  <polygon class="cls-4" points="288.48 1.5 439.11 330.24 453.2 330.24 302.36 1.5 288.48 1.5"/>
</svg>