<?xml version="1.0" encoding="UTF-8"?>
<svg id="Layer_1" data-name="Layer 1" xmlns="http://www.w3.org/2000/svg" width="433.37" height="195.06" viewBox="0 0 433.37 195.06">
  <defs>
    <style>
      .cls-1 {
        fill: #fff;
        stroke: #2d3d48;
        stroke-miterlimit: 10;
        stroke-width: 3px;
      }

      .cls-2 {
        fill: #2d3d48;
      }
    </style>
  </defs>
  <path class="cls-1" d="M2.86,42.92l112.64,24.14S142.95-.5,272.97,1.55c75.93,1.2,166.51,40.68,158.38,123.13-8.81,89.34-227.11,88.26-319.3,17.1C10.91,57.87,2.86,42.92,2.86,42.92Z"/>
  <g>
    <path class="cls-2" d="M181.42,78.92c-.29,0-.29,.57-.29,.96,0,.89,.03,2.36,.03,3.19,0,1.4-.19,3.73-2.33,3.73-1.53,0-1.53-2.07-1.53-4.78,0-5,.22-9.69,.22-14.88,0-.76,.03-1.5,.22-2.26,.51-2.23,3.31-2.39,5.38-2.39,3.76,0,12.23,1.82,12.23,6.21,0,8.25-9.46,10.23-13.95,10.23Zm-.51-4.17c.22,.22,1.11,.32,1.82,.32,3.66,0,8.47-.48,8.47-5.29,0-2.8-5.48-3.66-8.28-3.66-.38,0-.73,.03-1.12,.25-.99,.64-.86,6.47-.89,8.38Z"/>
    <path class="cls-2" d="M197.64,84.02c0-4.27,.7-7.58,.7-12.2,0-2.26-.06-3.7-.06-6.25,0-1.15,.16-3.44,1.98-3.44,1.72,0,1.91,2.1,1.91,3.85,0,3.15-.06,5.13-.19,8.22-.13,2.84-.25,5-.25,7.71,0,.29,.16,.38,.35,.38,3.28,0,5.42-.99,7.71-.99,.99,0,1.69,.67,1.69,2.04,0,2.17-7.77,3.06-11.37,3.06-1.43,0-2.45-.76-2.45-2.39Z"/>
    <path class="cls-2" d="M227.94,66.53c-1.4,0-3.22-.22-5.1-.22-1.69,0-3.03,.03-4.52,.32-.35,1.69-.45,3.47-.45,5.29,0,.76,.38,.8,.96,.8,2.17,0,4.11-.8,7.77-1.11,1.18,0,2.2,.8,2.2,1.91,0,.96-.48,1.98-1.62,2.04-3.19,.22-8.28,1.24-9.59,1.24-.16,.57-.19,1.37-.19,4.56,0,1.53,1.05,1.75,2.58,1.75,2.23,0,6.47-1.12,8.28-1.12,1.31,0,2.13,.61,2.23,1.78,0,1.18-.73,1.94-1.98,2.13-3.73,.57-6.59,.99-9.62,.99-3.54,0-5.07-.76-5.07-5.13,0-5.16,.76-10.96,.76-16.03,0-1.47,.7-2.64,2.17-2.93,3.85-.16,6.34-.57,10.35-.57,1.66,0,3.92,.03,3.92,2.2,0,1.72-1.21,2.1-3.09,2.1Z"/>
    <path class="cls-2" d="M243.2,62.36c.8,0,1.47,.57,1.94,1.66,2.04,4.68,6.31,15.26,6.31,19.94,0,1.05-.45,2.01-1.66,2.29-1.05,0-1.78-.86-2.29-2.64-.38-1.27-.7-2.68-1.05-4.11-1.02,.16-2.04,.29-3.03,.41-1.43,.19-3.73,.35-5.51,.57l-.64,1.66c-.76,1.91-1.5,5.13-3.06,5.13-1.18,0-2.07-.83-2.07-2.01,0-2.93,7.1-17.36,9.05-21.22,.54-1.11,.96-1.69,2.01-1.69Zm-3.82,14.4c1.98-.19,4.21-.38,6.28-.6-.45-1.82-.92-3.57-1.47-5.07-.29-.8-.7-1.62-1.05-1.62-.25,0-.64,.73-1.08,1.53-.89,1.62-1.82,3.73-2.68,5.77Z"/>
    <path class="cls-2" d="M254.13,80.32c.89,0,1.31,.61,1.98,1.15,1.37,.89,2.77,1.56,5.35,1.56,3.22,0,7.58-1.62,7.58-4.11,0-1.15-1.24-1.69-2.52-1.85-3.82-.86-13.41-.16-13.41-5.7,0-5.19,9.88-8.73,13.86-8.73,2.8,0,4.75,1.37,4.75,4.11,0,.8-.83,1.4-1.5,1.4-1.53,0-2.36-1.47-4.75-1.47s-7.9,2.01-7.9,4.59c0,3.79,16.15-.86,16.15,7.33,0,4.56-6.98,8.16-11.82,8.16-1.98,0-9.14-1.08-9.14-4.75,0-.86,.35-1.69,1.37-1.69Z"/>
    <path class="cls-2" d="M290.26,66.53c-1.4,0-3.22-.22-5.1-.22-1.69,0-3.03,.03-4.52,.32-.35,1.69-.45,3.47-.45,5.29,0,.76,.38,.8,.96,.8,2.17,0,4.11-.8,7.77-1.11,1.18,0,2.2,.8,2.2,1.91,0,.96-.48,1.98-1.62,2.04-3.19,.22-8.28,1.24-9.59,1.24-.16,.57-.19,1.37-.19,4.56,0,1.53,1.05,1.75,2.58,1.75,2.23,0,6.47-1.12,8.28-1.12,1.31,0,2.13,.61,2.23,1.78,0,1.18-.73,1.94-1.98,2.13-3.73,.57-6.6,.99-9.62,.99-3.54,0-5.07-.76-5.07-5.13,0-5.16,.76-10.96,.76-16.03,0-1.47,.7-2.64,2.17-2.93,3.86-.16,6.34-.57,10.35-.57,1.66,0,3.92,.03,3.92,2.2,0,1.72-1.21,2.1-3.09,2.1Z"/>
    <path class="cls-2" d="M316.97,67.29c.13,1.05,.16,2.68,.16,4.43,0,2.1-.06,4.36-.1,5.8-.06,2.17-.1,3.76-.25,5.77-.13,1.4-.35,3.35-2.2,3.35s-1.91-1.05-1.91-2.42c0-.96,.13-1.94,.16-2.68,.06-1.85,.16-3.47,.16-5.32s-.22-6.15-.22-8.44c0-.38-.32-.45-.99-.45-.92,0-3.35,.1-4.27,.1-1.05,0-2.17-.64-2.17-1.78,0-1.43,1.85-1.98,3.22-1.98,1.5,0,3.85,.16,6.72,.16,2.68,0,4.72-.54,6.82-.54,1.34,0,2.93,.06,2.93,1.66,0,2.64-3.95,2.04-5.54,2.23-.57,.03-2.07,.06-2.52,.13Z"/>
    <path class="cls-2" d="M332.58,62.36c.8,0,1.47,.57,1.94,1.66,2.04,4.68,6.31,15.26,6.31,19.94,0,1.05-.45,2.01-1.66,2.29-1.05,0-1.78-.86-2.29-2.64-.38-1.27-.7-2.68-1.05-4.11-1.02,.16-2.04,.29-3.03,.41-1.43,.19-3.73,.35-5.51,.57l-.64,1.66c-.76,1.91-1.5,5.13-3.06,5.13-1.18,0-2.07-.83-2.07-2.01,0-2.93,7.1-17.36,9.05-21.22,.54-1.11,.96-1.69,2.01-1.69Zm-3.82,14.4c1.98-.19,4.21-.38,6.28-.6-.45-1.82-.92-3.57-1.47-5.07-.29-.8-.7-1.62-1.05-1.62-.25,0-.64,.73-1.08,1.53-.89,1.62-1.82,3.73-2.68,5.77Z"/>
    <path class="cls-2" d="M347.23,78.92c-.29,0-.29,.57-.29,.96,0,.89,.03,2.36,.03,3.19,0,1.4-.19,3.73-2.33,3.73-1.53,0-1.53-2.07-1.53-4.78,0-5,.22-9.69,.22-14.88,0-.76,.03-1.5,.22-2.26,.51-2.23,3.31-2.39,5.38-2.39,3.76,0,12.23,1.82,12.23,6.21,0,8.25-9.46,10.23-13.96,10.23Zm-.51-4.17c.22,.22,1.12,.32,1.82,.32,3.66,0,8.47-.48,8.47-5.29,0-2.8-5.48-3.66-8.28-3.66-.38,0-.73,.03-1.11,.25-.99,.64-.86,6.47-.89,8.38Z"/>
    <path class="cls-2" d="M155.07,122.93c-.8,1.37-1.4,2.17-3.19,2.17-.57,0-.99-.22-1.12-.86,0-2.1,1.75-3.82,2.61-5.54,.16-.35,.8-1.47,1.56-2.84-2.84-4.68-5.83-10.23-8.6-12.39-.45-.35-.64-.76-.64-1.31,0-.96,.8-1.85,1.72-1.85,2.04,0,3.54,1.72,4.78,3.38,.54,.76,2.23,4.4,4.84,8.44l2.04-3.54c.96-1.18,3.54-8.22,5.96-8.22,.92,0,1.78,.8,1.78,1.78,0,1.05-1.88,3.54-2.77,4.84-2.13,3.19-7.36,13.13-8.98,15.93Z"/>
    <path class="cls-2" d="M176.17,124.39c-5.22,0-9.78-3.47-9.78-9.27,0-6.6,5.42-14.81,13.03-14.81s10.13,4.78,10.13,10.35c0,7.58-5.89,13.73-13.38,13.73Zm3-20.2c-4.72,0-8.76,4.91-8.76,10.64,0,3.92,2.93,6.21,6.56,6.21,5.23,0,8.73-5.73,8.73-10.58,0-4.01-2.64-6.28-6.53-6.28Z"/>
    <path class="cls-2" d="M198.44,125.12c-4.78,0-6.75-3.35-6.75-8.57,0-3.44,.54-6.15,.54-10.23,0-1.72,.19-4.21,2.23-4.21,1.91,0,2.04,2.55,2.04,4.17,0,3.54-.83,5.93-.83,10.26,0,3.7,.57,4.78,3.5,4.78,2.55,0,4.46-1.05,5.13-3.73,.96-3.82,1.02-6.95,1.02-11.09,0-2.64,.32-5.1,2.23-5.1,1.21,0,2.01,.96,2.01,2.07,0,3.09-.48,10.1-.99,14.24-.45,3.66-3.92,7.39-10.13,7.39Z"/>
    <path class="cls-2" d="M221.28,115.47l6.37,6.15c.45,.45,.67,.8,.67,1.21,0,.96-1.34,1.62-2.07,1.62-.96,0-1.85-.54-2.39-1.08-3.41-3.31-5.19-5.16-7.68-7.55-.06,.73-.1,1.75-.1,2.61,0,1.37,.1,2.84,.1,4.24,0,1.27-.64,2.26-1.78,2.26s-1.98-.83-2.07-2.1c.1-3.95,.19-20.87,1.31-21.57,.96-.61,4.43-1.12,6.85-1.12,4.14,0,8.89,1.91,8.89,6.47s-3.63,7.77-8.09,8.86Zm-1.56-11.47c-1.56,0-2.42,.25-3.28,.61,0,3.19-.1,5.54-.19,7.87,3.5,0,9.05-1.47,9.05-5.29,0-2.42-2.87-3.19-5.58-3.19Z"/>
    <path class="cls-2" d="M257.73,100.11c2.93,0,4.52,2.29,4.52,4.17,0,.83-.83,1.78-1.75,1.78s-.86-1.62-3.6-1.62c-4.33,0-11.12,5.89-11.12,12.62,0,2.26,2.26,3.5,4.4,3.5,4.43,0,7.33-3.41,9.72-3.41,.83,0,1.47,.64,1.47,1.56,0,3.09-6.85,5.86-10.35,5.86-4.68,0-8.92-1.98-8.92-7.2,0-8.19,7.9-17.27,15.64-17.27Z"/>
    <path class="cls-2" d="M273.92,100.59c.8,0,1.47,.57,1.94,1.66,2.04,4.68,6.31,15.26,6.31,19.94,0,1.05-.45,2.01-1.66,2.29-1.05,0-1.78-.86-2.29-2.64-.38-1.27-.7-2.68-1.05-4.11-1.02,.16-2.04,.29-3.03,.41-1.43,.19-3.73,.35-5.51,.57l-.64,1.66c-.76,1.91-1.5,5.13-3.06,5.13-1.18,0-2.07-.83-2.07-2.01,0-2.93,7.1-17.36,9.05-21.22,.54-1.12,.96-1.69,2.01-1.69Zm-3.82,14.4c1.98-.19,4.21-.38,6.28-.61-.45-1.82-.92-3.57-1.47-5.07-.29-.8-.7-1.62-1.05-1.62-.25,0-.64,.73-1.08,1.53-.89,1.62-1.82,3.73-2.68,5.77Z"/>
    <path class="cls-2" d="M293.36,115.47l6.37,6.15c.45,.45,.67,.8,.67,1.21,0,.96-1.34,1.62-2.07,1.62-.96,0-1.85-.54-2.39-1.08-3.41-3.31-5.19-5.16-7.68-7.55-.06,.73-.1,1.75-.1,2.61,0,1.37,.1,2.84,.1,4.24,0,1.27-.64,2.26-1.78,2.26s-1.98-.83-2.07-2.1c.1-3.95,.19-20.87,1.31-21.57,.96-.61,4.43-1.12,6.85-1.12,4.14,0,8.89,1.91,8.89,6.47s-3.63,7.77-8.09,8.86Zm-1.56-11.47c-1.56,0-2.42,.25-3.28,.61,0,3.19-.1,5.54-.19,7.87,3.5,0,9.05-1.47,9.05-5.29,0-2.42-2.87-3.19-5.58-3.19Z"/>
    <path class="cls-2" d="M306.8,125.35c-1.27,0-2.36-1.4-2.42-2.58-.03-.6-.06-1.21-.06-1.82,0-3.15,.22-6.15,.22-9.59,0-2.58-.48-5.61-.48-8.06,0-2.33,2.49-2.61,4.3-2.61,8.12,0,16.12,2.61,16.12,12.04s-11.72,12.62-17.68,12.62Zm14.18-13.19c0-3.76-5.19-7.14-11.09-7.14-.76,0-1.91,.16-1.91,1.27,0,3.76,.35,7.49,.38,14.91,5.1-.03,12.62-1.53,12.62-9.05Z"/>
    <path class="cls-2" d="M324.58,125.76c0-1.53,2.93-6.15,4.72-6.15,.64,0,1.21,.6,1.21,1.56s-.67,1.82-1.37,2.87c-1.05,1.53-1.94,3.35-3.09,3.35-.83,0-1.47-.76-1.47-1.62Z"/>
    <path class="cls-2" d="M344.62,118.56c.89,0,1.31,.61,1.98,1.15,1.37,.89,2.77,1.56,5.35,1.56,3.22,0,7.58-1.62,7.58-4.11,0-1.15-1.24-1.69-2.52-1.85-3.82-.86-13.41-.16-13.41-5.7,0-5.19,9.88-8.73,13.86-8.73,2.8,0,4.75,1.37,4.75,4.11,0,.8-.83,1.4-1.5,1.4-1.53,0-2.36-1.47-4.75-1.47s-7.9,2.01-7.9,4.59c0,3.79,16.15-.86,16.15,7.33,0,4.56-6.98,8.16-11.82,8.16-1.98,0-9.14-1.08-9.14-4.75,0-.86,.35-1.69,1.37-1.69Z"/>
    <path class="cls-2" d="M370.81,113.46c0,2.74,.03,5.7,.03,9.05,0,1.24-.7,3.09-2.61,3.09-.99,0-1.34-.6-1.34-1.62,.1-8.48,.1-13.25,.1-18.64,0-2.52,.09-4.59,2.04-4.59,1.62,0,1.88,2.36,1.91,3.79-.1,2.87-.13,5.73-.13,8.92Z"/>
    <path class="cls-2" d="M383.49,115.47l6.37,6.15c.45,.45,.67,.8,.67,1.21,0,.96-1.34,1.62-2.07,1.62-.96,0-1.85-.54-2.39-1.08-3.41-3.31-5.19-5.16-7.68-7.55-.06,.73-.1,1.75-.1,2.61,0,1.37,.1,2.84,.1,4.24,0,1.27-.64,2.26-1.78,2.26s-1.98-.83-2.07-2.1c.1-3.95,.19-20.87,1.31-21.57,.96-.61,4.43-1.12,6.85-1.12,4.14,0,8.89,1.91,8.89,6.47s-3.63,7.77-8.09,8.86Zm-1.56-11.47c-1.56,0-2.42,.25-3.28,.61,0,3.19-.1,5.54-.19,7.87,3.5,0,9.05-1.47,9.05-5.29,0-2.42-2.87-3.19-5.58-3.19Z"/>
  </g>
</svg>