<?xml version="1.0" encoding="utf-8"?>
<!-- Generator: Adobe Illustrator 26.1.0, SVG Export Plug-In . SVG Version: 6.00 Build 0)  -->
<svg version="1.1" id="Layer_1" xmlns="http://www.w3.org/2000/svg" xmlns:xlink="http://www.w3.org/1999/xlink" x="0px" y="0px"
	 viewBox="0 0 433.4 195.1" style="enable-background:new 0 0 433.4 195.1;" xml:space="preserve">
<style type="text/css">
	.st0{fill:#FFFFFF;stroke:#2D3D48;stroke-width:3;stroke-miterlimit:10;}
	.st1{enable-background:new    ;}
	.st2{fill:#2D3D48;}
</style>
<path class="st0" d="M2.9,42.9l112.6,24.1c0,0,27.4-67.6,157.5-65.5c75.9,1.2,166.5,40.7,158.4,123.1
	c-8.8,89.3-227.1,88.3-319.3,17.1C10.9,57.9,2.9,42.9,2.9,42.9z"/>
<g class="st1">
	<path class="st2" d="M168.8,81.4c0,2,0,4.3,0,6.8c0,0.9-0.5,2.3-1.9,2.3c-0.7,0-1-0.5-1-1.2c0.1-6.3,0.1-9.9,0.1-13.9
		c0-1.9,0.1-3.4,1.5-3.4c1.2,0,1.4,1.8,1.4,2.8C168.8,76.9,168.8,79.1,168.8,81.4z"/>
	<path class="st2" d="M180.1,85.2c0.7,0,1,0.5,1.5,0.9c1,0.7,2.1,1.2,4,1.2c2.4,0,5.7-1.2,5.7-3.1c0-0.9-0.9-1.3-1.9-1.4
		c-2.9-0.6-10-0.1-10-4.3c0-3.9,7.4-6.5,10.3-6.5c2.1,0,3.5,1,3.5,3.1c0,0.6-0.6,1-1.1,1c-1.1,0-1.8-1.1-3.5-1.1
		c-1.8,0-5.9,1.5-5.9,3.4c0,2.8,12.1-0.6,12.1,5.5c0,3.4-5.2,6.1-8.8,6.1c-1.5,0-6.8-0.8-6.8-3.5C179.1,85.9,179.3,85.2,180.1,85.2z
		"/>
	<path class="st2" d="M208.7,81.2c0,2,0,4.3,0,6.8c0,0.9-0.5,2.3-1.9,2.3c-0.7,0-1-0.5-1-1.2l0.1-7.6c-2.1,0.5-4.2,0.6-6.2,1.4
		c0,1.6,0,3.4,0,5.3c0,0.9-0.5,2.3-1.9,2.3c-0.7,0-1-0.5-1-1.2c0.1-6.3,0.1-9.9,0.1-13.9c0-1.9,0.1-3.4,1.5-3.4
		c1.2,0,1.4,1.8,1.4,2.8c-0.1,1.7-0.1,3.4-0.1,5.2c1.2-0.1,4.6-1,6.2-1.2v-3.6c0-1.9,0.1-3.4,1.5-3.4c1.2,0,1.4,1.8,1.4,2.8
		C208.7,76.7,208.7,78.8,208.7,81.2z"/>
	<path class="st2" d="M218.1,89.6c-3.9,0-7.3-2.6-7.3-6.9c0-4.9,4-11.1,9.7-11.1c5.7,0,7.6,3.6,7.6,7.7
		C228.1,85,223.7,89.6,218.1,89.6z M220.3,74.5c-3.5,0-6.5,3.7-6.5,7.9c0,2.9,2.2,4.6,4.9,4.6c3.9,0,6.5-4.3,6.5-7.9
		C225.2,76.2,223.2,74.5,220.3,74.5z"/>
	<path class="st2" d="M234.7,90.1c-3.6,0-5-2.5-5-6.4c0-2.6,0.4-4.6,0.4-7.6c0-1.3,0.1-3.1,1.7-3.1c1.4,0,1.5,1.9,1.5,3.1
		c0,2.6-0.6,4.4-0.6,7.7c0,2.8,0.4,3.6,2.6,3.6c1.9,0,3.3-0.8,3.8-2.8c0.7-2.9,0.8-5.2,0.8-8.3c0-2,0.2-3.8,1.7-3.8
		c0.9,0,1.5,0.7,1.5,1.5c0,2.3-0.4,7.5-0.7,10.6C241.9,87.4,239.3,90.1,234.7,90.1z"/>
	<path class="st2" d="M244.7,88c0-3.2,0.5-5.7,0.5-9.1c0-1.7,0-2.8,0-4.7c0-0.9,0.1-2.6,1.5-2.6c1.3,0,1.4,1.6,1.4,2.9
		c0,2.4,0,3.8-0.1,6.1c-0.1,2.1-0.2,3.7-0.2,5.8c0,0.2,0.1,0.3,0.3,0.3c2.4,0,4-0.7,5.8-0.7c0.7,0,1.3,0.5,1.3,1.5
		c0,1.6-5.8,2.3-8.5,2.3C245.5,89.8,244.7,89.2,244.7,88z"/>
	<path class="st2" d="M259,90.3c-1,0-1.8-1-1.8-1.9c0-0.5,0-0.9,0-1.4c0-2.4,0.2-4.6,0.2-7.2c0-1.9-0.4-4.2-0.4-6
		c0-1.7,1.9-1.9,3.2-1.9c6.1,0,12,1.9,12,9C272.2,88,263.5,90.3,259,90.3z M269.6,80.5c0-2.8-3.9-5.3-8.3-5.3c-0.6,0-1.4,0.1-1.4,1
		c0,2.8,0.3,5.6,0.3,11.1C264,87.2,269.6,86.1,269.6,80.5z"/>
	<path class="st2" d="M289.5,82.9l4.8,4.6c0.3,0.3,0.5,0.6,0.5,0.9c0,0.7-1,1.2-1.5,1.2c-0.7,0-1.4-0.4-1.8-0.8
		c-2.5-2.5-3.9-3.9-5.7-5.6c0,0.5-0.1,1.3-0.1,1.9c0,1,0.1,2.1,0.1,3.2c0,1-0.5,1.7-1.3,1.7c-0.9,0-1.5-0.6-1.5-1.6
		c0.1-2.9,0.1-15.6,1-16.1c0.7-0.5,3.3-0.8,5.1-0.8c3.1,0,6.6,1.4,6.6,4.8C295.6,79.9,292.8,82.1,289.5,82.9z M288.4,74.4
		c-1.2,0-1.8,0.2-2.4,0.5c0,2.4-0.1,4.1-0.1,5.9c2.6,0,6.8-1.1,6.8-3.9C292.5,74.9,290.4,74.4,288.4,74.4z"/>
	<path class="st2" d="M307.8,74.9c-1,0-2.4-0.2-3.8-0.2c-1.3,0-2.3,0-3.4,0.2c-0.3,1.3-0.3,2.6-0.3,3.9c0,0.6,0.3,0.6,0.7,0.6
		c1.6,0,3.1-0.6,5.8-0.8c0.9,0,1.6,0.6,1.6,1.4c0,0.7-0.4,1.5-1.2,1.5c-2.4,0.2-6.2,0.9-7.2,0.9c-0.1,0.4-0.1,1-0.1,3.4
		c0,1.1,0.8,1.3,1.9,1.3c1.7,0,4.8-0.8,6.2-0.8c1,0,1.6,0.5,1.7,1.3c0,0.9-0.5,1.5-1.5,1.6c-2.8,0.4-4.9,0.7-7.2,0.7
		c-2.6,0-3.8-0.6-3.8-3.8c0-3.9,0.6-8.2,0.6-12c0-1.1,0.5-2,1.6-2.2c2.9-0.1,4.7-0.4,7.7-0.4c1.2,0,2.9,0,2.9,1.6
		C310.1,74.7,309.2,74.9,307.8,74.9z"/>
	<path class="st2" d="M319.2,71.8c0.6,0,1.1,0.4,1.5,1.2c1.5,3.5,4.7,11.4,4.7,14.9c0,0.8-0.3,1.5-1.2,1.7c-0.8,0-1.3-0.6-1.7-2
		c-0.3-1-0.5-2-0.8-3.1c-0.8,0.1-1.5,0.2-2.3,0.3c-1.1,0.1-2.8,0.3-4.1,0.4l-0.5,1.2c-0.6,1.4-1.1,3.8-2.3,3.8
		c-0.9,0-1.5-0.6-1.5-1.5c0-2.2,5.3-13,6.8-15.8C318.1,72.3,318.4,71.8,319.2,71.8z M316.4,82.6c1.5-0.1,3.1-0.3,4.7-0.5
		c-0.3-1.4-0.7-2.7-1.1-3.8c-0.2-0.6-0.5-1.2-0.8-1.2c-0.2,0-0.5,0.5-0.8,1.1C317.7,79.5,317,81.1,316.4,82.6z"/>
	<path class="st2" d="M329.1,90.3c-1,0-1.8-1-1.8-1.9c0-0.5,0-0.9,0-1.4c0-2.4,0.2-4.6,0.2-7.2c0-1.9-0.4-4.2-0.4-6
		c0-1.7,1.9-1.9,3.2-1.9c6.1,0,12,1.9,12,9C342.3,88,333.6,90.3,329.1,90.3z M339.7,80.5c0-2.8-3.9-5.3-8.3-5.3
		c-0.6,0-1.4,0.1-1.4,1c0,2.8,0.3,5.6,0.3,11.1C334.1,87.2,339.7,86.1,339.7,80.5z"/>
</g>
<g class="st1">
	<path class="st2" d="M370.4,89.5c-2.3,0-1.9-2.5-2.5-5.2c-0.5-2.2-0.9-5.6-1.4-6.5c-2.2,4.4-2.7,12.1-4.8,12.1
		c-1.1,0-1.4-0.5-1.7-1.5c-0.7-3.1-1.7-7.4-2.4-10.3c-0.4,0.9-2.3,6.9-2.3,9.5c-0.1,1.1-0.3,2.6-1.8,2.6c-0.9,0-1.5-0.7-1.5-1.6
		c0-1.6,1.7-6.3,2.5-9.5c0.4-1.6,1.1-7.4,3.4-7.4c1.6,0,1.8,3.2,2.2,4.9c0.4,1.9,1.2,5.8,1.8,7.7c0.5-1.6,1.6-5.5,2.8-8.7
		c0.4-1.1,1-3.7,2.5-3.7c0.9,0,1.3,0.8,1.5,1.5c0.9,3.1,1.6,9,2.2,11.7c0.3,1.5,0.6,2.9,0.6,3.3C371.5,89.2,371.1,89.5,370.4,89.5z"
		/>
</g>
<g class="st1">
	<path class="st2" d="M378,88.5c-0.6,1-1,1.6-2.4,1.6c-0.4,0-0.7-0.2-0.8-0.6c0-1.6,1.3-2.9,1.9-4.1c0.1-0.3,0.6-1.1,1.2-2.1
		c-2.1-3.5-4.4-7.6-6.4-9.2c-0.3-0.3-0.5-0.6-0.5-1c0-0.7,0.6-1.4,1.3-1.4c1.5,0,2.6,1.3,3.6,2.5c0.4,0.6,1.7,3.3,3.6,6.3l1.5-2.6
		c0.7-0.9,2.6-6.1,4.4-6.1c0.7,0,1.3,0.6,1.3,1.3c0,0.8-1.4,2.6-2.1,3.6C383.1,79,379.3,86.4,378,88.5z"/>
</g>
<g class="st1">
	<path class="st2" d="M191.5,106.9c-0.2,1.4-0.4,4.3-0.4,5.9c0,1.2,0.1,2.4,0.1,3.8c0,1.1-0.3,2.2-1.6,2.2c-1,0-1.4-0.5-1.4-2.3
		c0-1.9,0.3-4.2,0.3-6.3c0-2.9,0-4.1,0-5.3c0-1-0.2-2.1-0.2-3.2c0-0.7,0.5-1.5,1.3-1.5c1.9,0,3.2,3.8,4,5.2c1.4,2.6,4.3,7.6,5.4,7.6
		c0.5,0,0.5-1,0.5-2.2c0-2.8-0.2-5.6-0.2-8.5c0-1.1,0.2-2.3,1.4-2.3c1.2,0,1.4,2.3,1.4,4.5c0,1.6-0.1,3.4-0.1,3.9
		c0,2.4,0.2,4.4,0.2,6.8c0,1.5-0.4,2.4-1.9,2.4C197.7,117.8,192.3,109.2,191.5,106.9z"/>
	<path class="st2" d="M211.2,118.1c-3.9,0-7.3-2.6-7.3-6.9c0-4.9,4-11.1,9.7-11.1c5.7,0,7.6,3.6,7.6,7.7
		C221.2,113.5,216.8,118.1,211.2,118.1z M213.5,103c-3.5,0-6.5,3.7-6.5,7.9c0,2.9,2.2,4.6,4.9,4.6c3.9,0,6.5-4.3,6.5-7.9
		C218.3,104.7,216.4,103,213.5,103z"/>
	<path class="st2" d="M231,104c0.1,0.8,0.1,2,0.1,3.3c0,1.6,0,3.3-0.1,4.3c0,1.6-0.1,2.8-0.2,4.3c-0.1,1-0.3,2.5-1.6,2.5
		c-1.4,0-1.4-0.8-1.4-1.8c0-0.7,0.1-1.5,0.1-2c0-1.4,0.1-2.6,0.1-4c0-1.3-0.2-4.6-0.2-6.3c0-0.3-0.2-0.3-0.7-0.3
		c-0.7,0-2.5,0.1-3.2,0.1c-0.8,0-1.6-0.5-1.6-1.3c0-1.1,1.4-1.5,2.4-1.5c1.1,0,2.9,0.1,5,0.1c2,0,3.5-0.4,5.1-0.4c1,0,2.2,0,2.2,1.2
		c0,2-2.9,1.5-4.1,1.7C232.4,104,231.3,104,231,104z"/>
	<path class="st2" d="M241.7,110c0,2,0,4.3,0,6.8c0,0.9-0.5,2.3-1.9,2.3c-0.7,0-1-0.5-1-1.2c0.1-6.3,0.1-9.9,0.1-13.9
		c0-1.9,0.1-3.4,1.5-3.4c1.2,0,1.4,1.8,1.4,2.8C241.7,105.4,241.7,107.6,241.7,110z"/>
	<path class="st2" d="M254.5,103.2c-1.2,0-2.5-0.2-3.8-0.2c-1.3,0-2.1,0-3.2,0.3c0,1,0,2.8,0,4.3c0,0.5,0,0.8,0.6,0.8
		c1.1,0,3.8-0.5,5.3-0.5c1.2,0,2.1,0.4,2.1,1.3c0,1.9-3.6,1.7-5.7,1.9c-1.2,0.1-1.5,0.1-2.3,0.3c0,1.7,0,3.1,0,5
		c0,0.9-0.5,2.3-1.9,2.3c-0.7,0-1-0.5-1-1.2c0.1-6.3,0.1-9.4,0.1-13.4c0-1.9,0.3-3.4,2.1-3.4c2.3,0,3.1-0.2,5.5-0.2
		c1.7,0,3.9,0.1,3.9,1.4C256.1,102.4,255.4,103,254.5,103.2z M260.9,110c0,2,0,4.3,0,6.8c0,0.9-0.5,2.3-1.9,2.3c-0.7,0-1-0.5-1-1.2
		c0.1-6.3,0.1-9.9,0.1-13.9c0-1.9,0.1-3.4,1.5-3.4c1.2,0,1.4,1.8,1.4,2.8C260.9,105.4,260.9,107.6,260.9,110z"/>
	<path class="st2" d="M274.8,100c2.2,0,3.4,1.7,3.4,3.1c0,0.6-0.6,1.3-1.3,1.3c-0.7,0-0.6-1.2-2.7-1.2c-3.2,0-8.3,4.4-8.3,9.4
		c0,1.7,1.7,2.6,3.3,2.6c3.3,0,5.5-2.5,7.3-2.5c0.6,0,1.1,0.5,1.1,1.2c0,2.3-5.1,4.4-7.7,4.4c-3.5,0-6.7-1.5-6.7-5.4
		C263.1,106.8,269,100,274.8,100z"/>
</g>
<g class="st1">
	<path class="st2" d="M286.8,100.3c0.6,0,1.1,0.4,1.5,1.2c1.5,3.5,4.7,11.4,4.7,14.9c0,0.8-0.3,1.5-1.2,1.7c-0.8,0-1.3-0.6-1.7-2
		c-0.3-1-0.5-2-0.8-3.1c-0.8,0.1-1.5,0.2-2.3,0.3c-1.1,0.1-2.8,0.3-4.1,0.4l-0.5,1.2c-0.6,1.4-1.1,3.8-2.3,3.8
		c-0.9,0-1.5-0.6-1.5-1.5c0-2.2,5.3-13,6.8-15.8C285.7,100.8,286.1,100.3,286.8,100.3z M284,111.1c1.5-0.1,3.1-0.3,4.7-0.5
		c-0.3-1.4-0.7-2.7-1.1-3.8c-0.2-0.6-0.5-1.2-0.8-1.2c-0.2,0-0.5,0.5-0.8,1.1C285.3,108,284.6,109.6,284,111.1z"/>
</g>
<g class="st1">
	<path class="st2" d="M300.4,104c0.1,0.8,0.1,2,0.1,3.3c0,1.6,0,3.3-0.1,4.3c0,1.6-0.1,2.8-0.2,4.3c-0.1,1-0.3,2.5-1.6,2.5
		c-1.4,0-1.4-0.8-1.4-1.8c0-0.7,0.1-1.5,0.1-2c0-1.4,0.1-2.6,0.1-4c0-1.3-0.2-4.6-0.2-6.3c0-0.3-0.2-0.3-0.7-0.3
		c-0.7,0-2.5,0.1-3.2,0.1c-0.8,0-1.6-0.5-1.6-1.3c0-1.1,1.4-1.5,2.4-1.5c1.1,0,2.9,0.1,5,0.1c2,0,3.5-0.4,5.1-0.4c1,0,2.2,0,2.2,1.2
		c0,2-2.9,1.5-4.1,1.7C301.9,104,300.8,104,300.4,104z"/>
	<path class="st2" d="M311.1,110c0,2,0,4.3,0,6.8c0,0.9-0.5,2.3-1.9,2.3c-0.7,0-1-0.5-1-1.2c0.1-6.3,0.1-9.9,0.1-13.9
		c0-1.9,0.1-3.4,1.5-3.4c1.2,0,1.4,1.8,1.4,2.8C311.1,105.4,311.1,107.6,311.1,110z"/>
	<path class="st2" d="M320.7,118.1c-3.9,0-7.3-2.6-7.3-6.9c0-4.9,4-11.1,9.7-11.1s7.6,3.6,7.6,7.7
		C330.7,113.5,326.3,118.1,320.7,118.1z M323,103c-3.5,0-6.5,3.7-6.5,7.9c0,2.9,2.2,4.6,4.9,4.6c3.9,0,6.5-4.3,6.5-7.9
		C327.8,104.7,325.9,103,323,103z"/>
	<path class="st2" d="M335.7,106.9c-0.2,1.4-0.4,4.3-0.4,5.9c0,1.2,0.1,2.4,0.1,3.8c0,1.1-0.3,2.2-1.6,2.2c-1,0-1.4-0.5-1.4-2.3
		c0-1.9,0.3-4.2,0.3-6.3c0-2.9,0-4.1,0-5.3c0-1-0.2-2.1-0.2-3.2c0-0.7,0.5-1.5,1.3-1.5c1.9,0,3.2,3.8,4,5.2c1.4,2.6,4.3,7.6,5.4,7.6
		c0.5,0,0.5-1,0.5-2.2c0-2.8-0.2-5.6-0.2-8.5c0-1.1,0.2-2.3,1.4-2.3c1.2,0,1.4,2.3,1.4,4.5c0,1.6-0.1,3.4-0.1,3.9
		c0,2.4,0.2,4.4,0.2,6.8c0,1.5-0.4,2.4-1.9,2.4C342,117.8,336.5,109.2,335.7,106.9z"/>
	<path class="st2" d="M349,113.8c0.7,0,1,0.5,1.5,0.9c1,0.7,2.1,1.2,4,1.2c2.4,0,5.7-1.2,5.7-3.1c0-0.9-0.9-1.3-1.9-1.4
		c-2.9-0.6-10-0.1-10-4.3c0-3.9,7.4-6.5,10.3-6.5c2.1,0,3.5,1,3.5,3.1c0,0.6-0.6,1-1.1,1c-1.1,0-1.8-1.1-3.5-1.1
		c-1.8,0-5.9,1.5-5.9,3.4c0,2.8,12.1-0.6,12.1,5.5c0,3.4-5.2,6.1-8.8,6.1c-1.5,0-6.8-0.8-6.8-3.5C348,114.4,348.2,113.8,349,113.8z"
		/>
</g>
</svg>
