<?xml version="1.0" encoding="UTF-8"?>
<svg id="Layer_1" data-name="Layer 1" xmlns="http://www.w3.org/2000/svg" width="684.13" height="559.42" viewBox="0 0 684.13 559.42">
  <defs>
    <style>
      .cls-1 {
        fill: #fff;
      }

      .cls-2 {
        fill: #354856;
      }

      .cls-3 {
        fill: #8abebe;
      }

      .cls-4 {
        fill: #596670;
      }

      .cls-5 {
        fill: #c6c3c0;
      }

      .cls-6 {
        fill: #dddcd7;
      }

      .cls-7 {
        fill: #93a4b0;
      }

      .cls-8 {
        fill: #f1eeea;
      }

      .cls-9 {
        fill: #7caaa9;
      }

      .cls-10 {
        fill: #808e98;
      }

      .cls-11 {
        fill: #667581;
      }

      .cls-12, .cls-13 {
        stroke-linecap: round;
        stroke-linejoin: round;
      }

      .cls-12, .cls-13, .cls-14 {
        fill: none;
        stroke: #354856;
      }

      .cls-12, .cls-14 {
        stroke-width: 2px;
      }

      .cls-14 {
        stroke-miterlimit: 10;
      }
    </style>
  </defs>
  <g id="character">
    <path class="cls-2" d="M663.53,452.58c29.81,0,18.13,24.62,12.98,71.22-3.41,30.64-51.55,32.75-84.2,30.61,5.75-9.6,10.81-38.04,11.11-54.69l13.58-1.81s16.76-45.33,46.53-45.33Z"/>
    <path class="cls-7" d="M624.59,337.27c12.51,34.56,1.71,63.06-31.51,63.46-4.95,.07-9.17-.1-12.78-.47,5.19-6.69,8.3-15.19,5.99-25.16-1.91-8.23-6.49-15.59-13.01-21.58,17.46-20.17,43.55-37.67,51.32-16.26Z"/>
    <path class="cls-11" d="M333.88,521.3c-4.35,3.75-65.29-16.7-67.87-12.22-15.59-2.98-30.98-5.79-43.15-7.96,4.55-1.3,8.86-2.78,12.91-4.45,25.06-10.37,29.37-45.76,24.19-75.97-.07-.37-.13-.74-.17-1.14,22.98,2.31,47.8,4.25,70.85,4.98,25.66,6.86,46.97,12.51,51.95,13.41,13.82,2.61,124.28,36.66,166.56,42.32,5.42,.7,44.89,5.15,51.78,6.89,1.91,.47,2.64,5.45,2.48,12.54l-52.52,6.99,11.54,44.29s12.85,2.27,29.87,3.41c-.74,1.2-1.47,2.11-2.21,2.68-9.1,6.92-72.02-20.71-98.78-15.52-22.98,4.45-101.56-9.28-138.69-17.38"/>
    <path class="cls-11" d="M550.89,506.7l52.52-6.99c-.3,16.66-5.35,45.09-11.11,54.69-17.03-1.14-29.87-3.41-29.87-3.41l-11.54-44.29Z"/>
    <path class="cls-3" d="M586.28,375.1c2.31,9.97-.8,18.47-5.99,25.16-20.64-1.97-21.21-9.87-23.05-15.02-2.11-5.95,5.32-19.34,16.02-31.71,6.52,5.99,11.11,13.35,13.01,21.58Z"/>
    <path class="cls-2" d="M560.49,237.34c23.62,0,14.38,19.54,10.27,56.5-2.14,19.27-26.66,24.29-49.64,24.69,.6-.47,1.07-.94,1.34-1.44,1.04-1.81,1.3-5.25,1.07-9.7,9.03-1.74,17.29-5.02,19.27-13.21h.33c24.32-.33,32.21-21.18,23.05-46.47-4.65-12.88-18.37-6.52-30.21,4.35-.07-.1-.13-.17-.2-.2,6.09-7.69,14.42-14.52,24.72-14.52Z"/>
    <path class="cls-7" d="M566.18,247.71c9.17,25.29,1.27,46.13-23.05,46.47h-.33c.54-2.07,.64-4.45,.27-7.19-2.38-17.46-1.07-29.47-7.09-34.92,11.84-10.87,25.56-17.23,30.21-4.35Z"/>
    <path class="cls-3" d="M557.25,385.24c1.84,5.15,2.41,13.05,23.05,15.02-8.33,10.87-22.01,17.09-26.83,17.23-7.76,.23-96.68-8-158.83,4.08-16.22,3.14-39.07,3.78-63.99,2.98-23.58-6.29-50.81-13.58-72.42-19.17-.33-4.48-.6-9.3-.77-14.28,8.9-1.61,16.12-2.71,20.64-3.01,24.59-1.61,117.32-28.37,144.51-44.12,35.36-.43,72.42-1.97,89.42-5.29,24.22-4.72,47.2,1.87,61.25,14.85-10.7,12.38-18.13,25.76-16.02,31.71Z"/>
    <path class="cls-9" d="M543.06,286.99c.37,2.74,.27,5.12-.27,7.19-12.68,.13-18.73-1.81-21.84-4.35-.94-4.42-2.04-8.93-3.24-13.31,.27-.8,.64-1.67,1.1-2.58l4.78-.64s3.85-10.4,11.07-20.04l1.3-1.2c6.02,5.45,4.72,17.46,7.09,34.92Z"/>
    <path class="cls-9" d="M520.95,289.83c3.11,2.54,9.17,4.48,21.84,4.35-1.97,8.2-10.24,11.47-19.27,13.21-.3-4.92-1.24-11.11-2.58-17.56Z"/>
    <path class="cls-1" d="M535.77,251.86c.07,.03,.13,.1,.2,.2l-1.3,1.2,1.1-1.4Z"/>
    <path class="cls-9" d="M535.77,251.86l-1.1,1.4c-6.79,6.56-12.81,14.42-15.86,20.67l-1.81,.23c-3.31-11.51-7.33-21.51-10.4-24.62,6.22-.4,11.64-.7,15.72-.87,6.52-.27,10.7,.8,13.45,3.18Z"/>
    <path class="cls-9" d="M534.67,253.27c-7.23,9.63-11.07,20.04-11.07,20.04l-4.78,.64c3.04-6.26,9.07-14.12,15.86-20.67Z"/>
    <path class="cls-7" d="M478.37,156.96c33.65,15.56,72.52,15.56,72.52,15.56,0,0-81.59,75.43-104.91,80.29-1.91,.4-3.81,.64-5.69,.77-13.41,.9-25.83-4.62-33.08-8.73,8.03-6.62,13.88-13.41,16.76-20.1,8.03-18.7,2.48-39.04-8.8-57.84,0,0,29.54-25.46,63.19-9.94Z"/>
    <path class="cls-4" d="M523.53,307.39c.23,4.45-.03,7.89-1.07,9.7-.27,.5-.74,.97-1.34,1.44-21.04,.37-40.78-3.14-40.78-3.14l-.3-1.1c9.6-.77,16.22-1.61,18.13-2.58,4.82-2.41,15.56-2.44,25.36-4.32Z"/>
    <path class="cls-9" d="M520.95,289.83c1.34,6.46,2.27,12.64,2.58,17.56-9.8,1.87-20.54,1.91-25.36,4.32-1.91,.97-8.53,1.81-18.13,2.58l-8.86-34.02,45.83-6.09c.23,.77,.47,1.54,.7,2.34-1,2.58-1.3,4.78-.77,6.29,.74,2.07,1.2,4.78,4.01,7.02Z"/>
    <path class="cls-4" d="M480.34,315.39s19.74,3.51,40.78,3.14c-11.11,8.53-74.13,8.93-95.51,23.55-.87,.6-1.87,1.24-3.01,1.87-38.37,.4-74.77-.47-81.49-1.81-7.43-1.51-49.44-2.14-84.57-2.07-.03-2.78-.07-5.39-.1-7.79,1.64-.43,2.91-.97,3.85-1.4,.77-.33,.84-1.37,.17-1.87l-4.18-3.11c-.03-.97-.07-1.91-.1-2.78,31.14-2.81,63.39-5.39,70.18-4.85,11.37,.94,111.46-.57,153.68-3.98l.3,1.1Z"/>
    <path class="cls-9" d="M517.01,274.18l1.81-.23c-.47,.9-.84,1.77-1.1,2.58-.23-.8-.47-1.57-.7-2.34Z"/>
    <path class="cls-9" d="M517.71,276.52c1.2,4.38,2.31,8.9,3.24,13.31-2.81-2.24-3.28-4.95-4.01-7.02-.54-1.51-.23-3.71,.77-6.29Z"/>
    <path class="cls-9" d="M517.01,274.18l-45.83,6.09,8.86,34.02c-42.22,3.41-142.31,4.92-153.68,3.98-6.79-.54-39.04,2.04-70.18,4.85-.2-4.21-.47-7.26-.9-8.63l8.26-5.75c.7-.5,.6-1.57-.2-1.91l-12.08-5.39c-.17-.07-.3-.17-.4-.3,24.39-1.97,52.82-8.4,79.62-17.5h.07c40.91-5.49,97.51-13.31,123.81-20.77,4.32-1.24,30.78-9.3,43.96-12.75,2.88-.2,5.65-.37,8.3-.57,3.08,3.11,7.09,13.11,10.4,24.62Z"/>
    <path class="cls-1" d="M504.63,248.62c.6-.1,1.27,.23,1.97,.94-2.64,.2-5.42,.37-8.3,.57,2.84-.77,5.08-1.3,6.32-1.51Z"/>
    <path class="cls-9" d="M498.31,250.12c-13.18,3.45-39.64,11.51-43.96,12.75-26.29,7.46-82.89,15.29-123.81,20.77,19.54-6.66,38.2-14.69,53.76-23.45,21.84-3.04,40.18-5.45,44.79-5.45,2.27,0,6.22-.17,11.24-.5,14.62-.87,38.54-2.74,57.97-4.11Z"/>
    <path class="cls-7" d="M415.18,166.89c11.27,18.8,16.83,39.14,8.8,57.84-2.88,6.69-8.73,13.48-16.76,20.1-4.15-2.38-6.59-4.28-6.59-4.28,0,0,7.06-75.37,14.55-73.66Z"/>
    <path class="cls-7" d="M415.18,166.89c-7.49-1.71-14.55,73.66-14.55,73.66,0,0,2.44,1.91,6.59,4.28-6.39,5.25-14.15,10.44-22.91,15.35-35.29,4.92-79.72,11.61-89.85,12.68-6.82,.7-33.25,6.26-62.05,12.58l-5.69-15.69c-.13-.4-.5-.7-.94-.74l-9.67-.9c-1.87-2.31-3.68-4.58-5.39-6.72l5.29-10.84c.37-.77-.2-1.61-1.04-1.61l-13.82,.5c-3.68-4.58-5.95-7.46-5.95-7.46l-2.38,1.4,2.21-13.25c.1-.6-.3-1.17-.9-1.27l-23.75-3.98c-.6-.1-1-.64-.94-1.24l1.97-15.45c.1-.8-.64-1.44-1.37-1.24l-9.83,2.78c-9.67-44.66-11.27-95.94,5.89-125.95,.13,1.04,.54,1.4,1.51,.64,4.08-3.31,77.41-13.55,86.17-25.56,52.59,9.8,95.97,43.25,95.97,43.25,15.35,9.03,47.6,34.92,65.43,64.76Z"/>
    <path class="cls-3" d="M341.11,342.15c6.72,1.34,43.12,2.21,81.49,1.81-27.2,15.76-119.93,42.52-144.51,44.12-4.52,.3-11.74,1.4-20.64,3.01-.7-16.96-.7-36.03-.9-51.01,35.12-.07,77.14,.57,84.57,2.07Z"/>
    <path class="cls-7" d="M294.45,272.87c10.14-1.07,54.56-7.76,89.85-12.68-15.56,8.76-34.22,16.79-53.76,23.45h-.07c-22.91,3.08-40.88,5.42-45.8,6.56-3.71,.84-16.93,2.91-34.39,5.55l-.6-9.94c-.03-.77-.8-1.24-1.51-.97l-12.98,5.02c-.6,.23-1.24-.07-1.44-.67l-1.37-3.75c28.8-6.32,55.23-11.88,62.05-12.58Z"/>
    <path class="cls-3" d="M258.22,405.37c21.61,5.59,48.84,12.88,72.42,19.17-23.05-.74-47.87-2.68-70.85-4.98-.67-4.08-1.17-8.9-1.57-14.18Z"/>
    <path class="cls-7" d="M284.68,290.2c4.92-1.14,22.88-3.48,45.8-6.56-26.8,9.1-55.23,15.52-79.62,17.5-.13-.17-.23-.4-.27-.64l-.3-4.75c17.46-2.64,30.68-4.72,34.39-5.55Z"/>
    <path class="cls-6" d="M263.34,306.82c.8,.33,.9,1.4,.2,1.91l-8.26,5.75c-.13-.5-.3-.8-.5-.84-.87-.23-5.22-5.02-11.17-12.04,2.38-.1,4.78-.27,7.26-.47,.1,.13,.23,.23,.4,.3l12.08,5.39Z"/>
    <path class="cls-1" d="M260.46,329c.67,.5,.6,1.54-.17,1.87-.94,.43-2.21,.97-3.85,1.4-.07-2.31-.1-4.45-.17-6.39l4.18,3.11Z"/>
    <path class="cls-3" d="M259.96,420.7c5.19,30.21,.87,65.6-24.19,75.97-4.05,1.67-8.36,3.14-12.91,4.45-14.92-2.71-25.06-4.45-25.06-4.45l25.19-81.19c11.24,1.37,23.72,2.78,36.8,4.08,.03,.4,.1,.77,.17,1.14Z"/>
    <path class="cls-3" d="M258.22,405.37c.4,5.29,.9,10.1,1.57,14.18-13.08-1.3-25.56-2.71-36.8-4.08l5.42-17.43c6.96,1.54,17.46,4.15,29.81,7.33Z"/>
    <path class="cls-3" d="M257.45,391.09c.17,4.98,.43,9.8,.77,14.28-12.34-3.18-22.85-5.79-29.81-7.33l.37-1.27c10.4-2.17,20.27-4.15,28.67-5.69Z"/>
    <path class="cls-3" d="M219.92,396.51c.87,0,2.88,.33,5.79,.94-17.26,3.71-35.69,7.89-51.15,11.47-1.3-.2-1.97-.3-1.97-.3l28.57-56.5,.07-.03c.5-.27,1.14-.1,1.44,.37l6.46,10.07c.4,.6,1.24,.7,1.74,.17l12.04-12.78c.43-.47,1.17-.47,1.61,0l11.47,12.18c.64,.67,1.74,.3,1.91-.6l2.01-12.58c.1-.74,.87-1.14,1.54-.84l11.21,5.15c1.04,.47,2.04-.74,1.37-1.64-2.27-3.08-5.49-7.66-7.26-11.44,3.18-.03,6.46-.07,9.8-.07,.2,14.99,.2,34.05,.9,51.01-8.4,1.54-18.26,3.51-28.67,5.69l-.5,1.69-8.37-1.96Z"/>
    <path class="cls-1" d="M256.45,332.28c.03,2.41,.07,5.02,.1,7.79-3.35,0-6.62,.03-9.8,.07-1.67-3.71-2.04-6.62,1.14-6.62,3.41-.03,6.29-.57,8.56-1.24Z"/>
    <path class="cls-6" d="M256.28,325.89c.07,1.94,.1,4.08,.17,6.39-2.27,.67-5.15,1.2-8.56,1.24-3.18,0-2.81,2.91-1.14,6.62-21.64,.1-38.77,.5-40.11,1.14l-5.49,10.84-21.94,10.97c-.64,.3-1.4-.03-1.57-.74l-5.39-23.85c-.17-.74-1.04-1.1-1.67-.67l-12.14,7.83c-.6,.4-1.44,.13-1.67-.57l-6.89-20.77c-.23-.64-.94-.94-1.54-.64l-9.97,5.02c-.54,.27-1.2,.03-1.47-.5l-5.12-10.2c-.23-.5-.84-.74-1.37-.54l-2.68,1-.4-3.65c6.42-1.24,15.92-2.81,27.16-4.62l13.11,6.56,24.65,12.38s10.17-1,24.92-2.41l-2.11,2.74,9.7-2.98v-.5c8.6-.8,18.26-1.71,28.13-2.58l3.38,2.48Z"/>
    <path class="cls-1" d="M256.28,325.89l-3.38-2.48c1.1-.13,2.17-.2,3.28-.3,.03,.87,.07,1.81,.1,2.78Z"/>
    <path class="cls-1" d="M256.18,323.12c-1.1,.1-2.17,.17-3.28,.3l-3.78-2.81c-.64-.43-.6-1.37,0-1.81l6.16-4.32c.43,1.37,.7,4.42,.9,8.63Z"/>
    <path class="cls-6" d="M255.28,314.49l-6.16,4.32c-.6,.43-.64,1.37,0,1.81l3.78,2.81c-9.87,.87-19.54,1.77-28.13,2.58v-9.23l-7.59,9.97c-14.75,1.4-24.92,2.41-24.92,2.41l-24.65-12.38h14.89l-8.7-9.57c14.08-2.14,29.44-4.45,44.09-6.62,7.59,1.2,16.29,1.51,25.72,1.04,5.95,7.02,10.3,11.81,11.17,12.04,.2,.03,.37,.33,.5,.84Z"/>
    <path class="cls-6" d="M254,351.58c.67,.9-.33,2.11-1.37,1.64l-11.21-5.15c-.67-.3-1.44,.1-1.54,.84l-2.01,12.58c-.17,.9-1.27,1.27-1.91,.6l-11.47-12.18c-.43-.47-1.17-.47-1.61,0l-12.04,12.78c-.5,.54-1.34,.43-1.74-.17l-6.46-10.07c-.3-.47-.94-.64-1.44-.37l-.07,.03,5.49-10.84c1.34-.64,18.47-1.04,40.11-1.14,1.77,3.78,4.98,8.36,7.26,11.44Z"/>
    <path class="cls-10" d="M199.95,2.21c54.63,10.37,53.82,56.67,53.82,56.67-18.57-3.48-38.3-3.98-57.71,.97-13.41,3.45-23.22,12.01-29.97,23.95-.43-3.35,2.21-13.65-1.1-12.95-21.34,4.52-59.54-9.27-73.8-18.77,7.33-.87,54.16-60.21,108.75-49.88Z"/>
    <path class="cls-6" d="M250.59,300.5c.03,.23,.13,.47,.27,.64-2.48,.2-4.88,.37-7.26,.47-1.14-1.34-2.38-2.81-3.65-4.32,3.58-.54,7.02-1.07,10.34-1.54l.3,4.75Z"/>
    <path class="cls-6" d="M249.69,285.82l.6,9.94c-3.31,.47-6.76,1-10.34,1.54-2.94-3.51-6.16-7.39-9.43-11.44,.64-.13,1.27-.27,1.87-.4l1.37,3.75c.2,.6,.84,.9,1.44,.67l12.98-5.02c.7-.27,1.47,.2,1.51,.97Z"/>
    <path class="cls-6" d="M239.95,297.29c1.27,1.51,2.51,2.98,3.65,4.32-9.43,.47-18.13,.17-25.72-1.04,7.63-1.14,15.09-2.24,22.08-3.28Z"/>
    <path class="cls-6" d="M226.71,269.76l5.69,15.69c-.6,.13-1.24,.27-1.87,.4-4.78-5.82-9.77-11.98-14.42-17.73l9.67,.9c.43,.03,.8,.33,.94,.74Z"/>
    <path class="cls-6" d="M230.52,285.85c3.28,4.05,6.49,7.93,9.43,11.44-6.99,1.04-14.45,2.14-22.08,3.28-8.46-1.27-15.52-3.65-20.71-7.26,10.74-2.44,22.18-4.98,33.35-7.46Z"/>
    <path class="cls-3" d="M228.41,398.05l-5.42,17.43c-24.22-2.94-42.62-5.69-48.44-6.56,15.45-3.58,32.18-10.46,49.44-14.18,.84,.17,3.45,3.07,4.42,3.31Z"/>
    <path class="cls-1" d="M224.77,325.99v.5l-9.7,2.98,2.11-2.74c2.41-.23,4.95-.47,7.59-.74Z"/>
    <path class="cls-10" d="M201.15,245.86s4.64-197.67,110.17-162.06c-23.79-15.34-96.39-45.34-140.78-9.4-17.52,21.94-20.51,112.4-10.34,131.45,10.17,19.05,13.58,40.01,13.58,40.01l21.26,15.54,6.11-15.54Z"/>
    <path class="cls-6" d="M216.1,268.12c4.65,5.75,9.63,11.91,14.42,17.73-11.17,2.48-22.61,5.02-33.35,7.46-1.37-.9-2.58-1.94-3.68-3.04-5.39-5.49-10.81-14.42-15.89-25.62l-.03-.13-3.08-10.24,18.33-10.87-.84,5.02c-.13,.7,.43,1.34,1.14,1.3l8.03-.27c2.58,3.24,5.89,7.36,9.57,11.94l-2.17,4.48c-.33,.7,.13,1.54,.9,1.61l6.66,.64Zm-7.73,20.77l4.95-10.94-13.38,2.61,8.43,8.33Z"/>
    <path class="cls-6" d="M224.77,316.76v9.23c-2.64,.27-5.19,.5-7.59,.74l7.59-9.97Z"/>
    <path class="cls-3" d="M222.99,415.48l-25.19,81.19s10.14,1.74,25.06,4.45c-45.63,12.98-113.97,7.13-169.1-9.17l27.97-14.82-36.9-25.09-15.75-.27-4.94-27.63-1.85-19.03,19.63-12.92,29.84-32.88-44.42-6.99,3.88-9.13c22.11-16.93,46.3-32.88,67.27-45.76-.23,.54,.03,1.24,.67,1.44l18.16,5.82c.6,.17,.9,.8,.74,1.37l-4.98,15.96c-.27,.87,.57,1.71,1.44,1.37l13.21-4.92,10.7,99.02s15.39-3.75,36.13-8.56c5.82,.87,24.22,3.61,48.44,6.56Z"/>
    <path class="cls-6" d="M214.97,248.95c.84,0,1.4,.84,1.04,1.61l-5.29,10.84c-3.68-4.58-6.99-8.7-9.57-11.94l13.82-.5Z"/>
    <path class="cls-1" d="M216.1,268.12l-6.66-.64c-.77-.07-1.24-.9-.9-1.61l2.17-4.48c1.71,2.14,3.51,4.42,5.39,6.72Z"/>
    <polygon class="cls-6" points="213.33 277.96 208.38 288.89 199.95 280.56 213.33 277.96"/>
    <path class="cls-6" d="M217.88,300.57c-14.65,2.17-30.01,4.48-44.09,6.62l-1.2-1.3-.74,1.61c-6.09,.94-11.94,1.84-17.36,2.71l-9.57-4.78c1.37-.47,24.49-5.85,52.25-12.11,5.19,3.61,12.24,5.99,20.71,7.26Z"/>
    <path class="cls-3" d="M201.15,352.12l-28.57,56.5s.67,.1,1.97,.3c-20.74,4.82-36.13,8.56-36.13,8.56l-10.7-99.02,2.68-1c.54-.2,1.14,.03,1.37,.54l5.12,10.2c.27,.54,.94,.77,1.47,.5l9.97-5.02c.6-.3,1.3,0,1.54,.64l6.89,20.77c.23,.7,1.07,.97,1.67,.57l12.14-7.83c.64-.43,1.51-.07,1.67,.67l5.39,23.85c.17,.7,.94,1.04,1.57,.74l21.94-10.97Z"/>
    <path class="cls-6" d="M194.12,228.88c.6,.1,1,.67,.9,1.27l-2.21,13.25-18.33,10.87-.43-1.47-1.17,.47c-4.92-12.88-9.3-27.8-12.68-43.52l9.83-2.78c.74-.2,1.47,.43,1.37,1.24l-1.97,15.45c-.07,.6,.33,1.14,.94,1.24l23.75,3.98Z"/>
    <path class="cls-6" d="M173.79,307.19l8.7,9.57h-14.89l4.25-9.27c.64-.1,1.27-.2,1.94-.3Z"/>
    <path class="cls-9" d="M132.03,324.5s-59.9,37.09-91.01,73.54c-4.44,5.21-30.13,101.66,198.93,93.32-28.52,24.56-138.59,13.72-186.2,.58-4.32-1.19-9-3.58-13.83-6.78C-.7,458.26-10.36,402.64,17.56,362.7l13.65-19.52,70.01-47.44,31.55,14.45-.74,14.3Z"/>
    <path class="cls-6" d="M177.57,264.51l.03,.13-8.03-7.46,3.91-2.31c1.34,3.38,2.68,6.59,4.08,9.63Z"/>
    <path class="cls-1" d="M174.49,254.27l3.08,10.24c-1.4-3.04-2.74-6.26-4.08-9.63l1-.6Z"/>
    <path class="cls-6" d="M119.43,316.59c1.34-.43,4.05-1.04,7.89-1.77l.4,3.65-13.21,4.92c-.87,.33-1.71-.5-1.44-1.37l4.98-15.96c.17-.57-.13-1.2-.74-1.37l-18.16-5.82c-.64-.2-.9-.9-.67-1.44,29.74-18.26,52.99-30.41,54.53-30.41l16.56-9.83,8.03,7.46c5.08,11.21,10.5,20.14,15.89,25.62,1.1,1.1,2.31,2.14,3.68,3.04-27.77,6.26-50.88,11.64-52.25,12.11l9.57,4.78c-11.24,1.81-20.74,3.38-27.16,4.62l-.17-1.57-7.73,3.35Zm19.34-21.78l-5.99-11.37-5.99,13.11,11.98-1.74Z"/>
    <path class="cls-1" d="M174.05,252.8l.43,1.47-1,.6-.6-1.61,1.17-.47Z"/>
    <polygon class="cls-9" points="174.56 411.2 259.79 451.77 259.96 420.7 174.56 411.2"/>
    <path class="cls-8" d="M173.79,307.19c-.67,.1-1.3,.2-1.94,.3l.74-1.61,1.2,1.3Z"/>
    <path class="cls-1" d="M172.88,253.27l.6,1.61-3.91,2.31-1.97-1.81,5.29-2.11Z"/>
    <path class="cls-6" d="M172.88,253.27l-5.29,2.11,1.97,1.81-16.56,9.83c-1.54,0-24.79,12.14-54.53,30.41,.03-.17,.17-.33,.33-.47l11.81-9.5c.7-.6,.47-1.74-.43-1.94l-14.42-3.45c-.77-.17-1.1-1.04-.67-1.71l16.46-24.22c.43-.6,.13-1.44-.54-1.67l-19.1-6.59c-.87-.3-1-1.44-.27-1.94l23.88-16.96c.57-.4,.64-1.24,.1-1.74l-10.77-10.07c-.57-.5-.43-1.44,.27-1.77l15.42-7.73c.27-.13,.47-.37,.57-.64l5.32-15.22c.27-.77,1.2-1,1.81-.47l11.84,11.14c.43,.37,1.04,.4,1.47,.03l12.71-10.44c.8-.67,1.97,0,1.81,1.04l-2.81,16.96c-.13,.77,.64,1.44,1.4,1.24l5.52-1.57c3.38,15.72,7.76,30.64,12.68,43.52Zm-37.67-11.27l7.13-6.89-7.13-4.32v11.21Z"/>
    <path class="cls-4" d="M264.01,451.77s152.63,31.51,166.45,31.94c13.81,.43,46.62-1.29,59.57,0s60,6.68,65.61,7.66c5.61,.98,44.97,3.85,45.83,.58,.85-3.28-143.81-33.3-143.81-33.3l-118.07-31.72-75.57-5.19v30.04Z"/>
    <path class="cls-6" d="M171.85,307.49l-4.25,9.27-13.11-6.56c5.42-.87,11.27-1.77,17.36-2.71Z"/>
    <polygon class="cls-6" points="142.34 235.1 135.22 241.99 135.22 230.79 142.34 235.1"/>
    <polygon class="cls-6" points="132.77 283.44 138.76 294.82 126.79 296.55 132.77 283.44"/>
    <path class="cls-6" d="M127.15,313.25l.17,1.57c-3.85,.74-6.56,1.34-7.89,1.77l7.73-3.35Z"/>
    <polygon class="cls-5" points="130.4 317.46 138.78 314.49 136.83 305.89 147.51 304.75 147.78 291.03 154.39 291.03 155.61 277.13 167.6 272.99 161.7 261.86 166.61 257.18 163.16 249.55 173.48 250.12 173.79 245.86 184.74 252.8 188.95 248.64 191.88 229.48 170.37 224.9 170.04 206.97 153.28 210.08 154.28 192.08 140.1 202.49 126.45 191.82 121.13 207.04 104.87 217.17 115.65 227.24 91.66 245.94 111.03 254.47 95.78 282.07 110.19 285.52 98.48 297.42 117.32 304.68 114.51 323.38 130.4 317.46"/>
    <path class="cls-14" d="M521.12,318.53c22.98-.4,47.5-5.42,49.64-24.69,4.11-36.96,13.35-56.5-10.27-56.5-10.3,0-18.63,6.82-24.72,14.52"/>
    <path class="cls-14" d="M592.31,554.4c32.65,2.14,80.79,.03,84.2-30.61,5.15-46.6,16.83-71.22-12.98-71.22s-46.53,45.33-46.53,45.33l-13.58,1.81"/>
    <path class="cls-14" d="M506.6,249.55c-.7-.7-1.37-1.04-1.97-.94-1.24,.2-3.48,.74-6.32,1.51"/>
    <path class="cls-14" d="M422.6,343.96c1.14-.64,2.14-1.27,3.01-1.87,21.38-14.62,84.4-15.02,95.51-23.55,.6-.47,1.07-.94,1.34-1.44,1.04-1.81,1.3-5.25,1.07-9.7"/>
    <path class="cls-14" d="M265.24,508.93c37.13,8.1,202.67,32.28,226.07,32.63,19.72,.3,89.69,22.45,98.78,15.52,.74-.57,1.47-1.47,2.21-2.68,5.75-9.6,10.81-38.04,11.11-54.69,.17-7.09-.57-12.08-2.48-12.54-6.89-1.74-46.36-6.19-51.78-6.89-42.28-5.65-152.74-39.71-166.56-42.32-4.98-.9-26.29-6.56-51.95-13.41"/>
    <path class="cls-14" d="M222.86,501.11c12.18,2.17,27.56,4.98,43.15,7.96"/>
    <path class="cls-14" d="M256.28,325.89c-.03-.97-.07-1.91-.1-2.78"/>
    <path class="cls-14" d="M256.55,340.08c-.03-2.78-.07-5.39-.1-7.79"/>
    <path class="cls-14" d="M98.48,297.42c-16.02,9.84-33.92,21.47-51.33,33.96-17.86,12.81-31.86,30.45-39.76,50.97-4.77,12.41-7.79,26.81-5.75,41.79,5.81,42.79,39.58,64.35,52.11,67.81,55.41,15.3,123.47,22.15,169.1,9.17,4.55-1.3,8.86-2.78,12.91-4.45,25.06-10.37,29.37-45.76,24.19-75.97-.07-.37-.13-.74-.17-1.14"/>
    <path class="cls-14" d="M573.27,353.52c17.46-20.17,43.55-37.67,51.32-16.26,12.51,34.56,1.71,63.06-31.51,63.46-4.95,.07-9.17-.1-12.78-.47"/>
    <path class="cls-14" d="M535.97,252.06c11.84-10.87,25.56-17.23,30.21-4.35,9.17,25.29,1.27,46.13-23.05,46.47h-.33"/>
    <path class="cls-12" d="M252.9,323.42c1.1-.13,2.17-.2,3.28-.3,31.14-2.81,63.39-5.39,70.18-4.85,11.37,.94,111.46-.57,153.68-3.98,9.6-.77,16.22-1.61,18.13-2.58,4.82-2.41,15.56-2.44,25.36-4.32,9.03-1.74,17.29-5.02,19.27-13.21,.54-2.07,.64-4.45,.27-7.19-2.38-17.46-1.07-29.47-7.09-34.92-.07-.1-.13-.17-.2-.2-2.74-2.38-6.92-3.45-13.45-3.18-4.08,.17-9.5,.47-15.72,.87-2.64,.2-5.42,.37-8.3,.57-19.44,1.37-43.35,3.24-57.97,4.11-5.02,.33-8.97,.5-11.24,.5-4.62,0-22.95,2.41-44.79,5.45"/>
    <path class="cls-12" d="M172.58,408.62s.67,.1,1.97,.3c5.82,.87,24.22,3.61,48.44,6.56,11.24,1.37,23.72,2.78,36.8,4.08,22.98,2.31,47.8,4.25,70.85,4.98,24.92,.8,47.77,.17,63.99-2.98,62.15-12.08,151.07-3.85,158.83-4.08,4.82-.13,18.5-6.36,26.83-17.23,5.19-6.69,8.3-15.19,5.99-25.16-1.91-8.23-6.49-15.59-13.01-21.58-14.05-12.98-37.03-19.57-61.25-14.85-16.99,3.31-54.06,4.85-89.42,5.29-38.37,.4-74.77-.47-81.49-1.81-7.43-1.51-49.44-2.14-84.57-2.07-3.35,0-6.62,.03-9.8,.07"/>
    <path class="cls-14" d="M160.2,209.75c-9.67-44.66-11.27-95.94,5.89-125.95,6.76-11.94,16.56-20.51,29.97-23.95,19.4-4.95,39.14-4.45,57.71-.97,52.59,9.8,95.97,43.25,95.97,43.25,15.35,9.03,47.6,34.92,65.43,64.76"/>
    <path class="cls-14" d="M407.22,244.84c-6.39,5.25-14.15,10.44-22.91,15.35-15.56,8.76-34.22,16.79-53.76,23.45h-.07c-26.8,9.1-55.23,15.52-79.62,17.5"/>
    <path class="cls-14" d="M160.2,209.75l-5.52,1.57c-.77,.2-1.54-.47-1.4-1.24l2.81-16.96c.17-1.04-1-1.71-1.81-1.04l-12.71,10.44c-.43,.37-1.04,.33-1.47-.03l-11.84-11.14c-.6-.54-1.54-.3-1.81,.47l-5.32,15.22c-.1,.27-.3,.5-.57,.64l-15.42,7.73c-.7,.33-.84,1.27-.27,1.77l10.77,10.07c.54,.5,.47,1.34-.1,1.74l-23.88,16.96c-.74,.5-.6,1.64,.27,1.94l19.1,6.59c.67,.23,.97,1.07,.54,1.67l-16.46,24.22c-.43,.67-.1,1.54,.67,1.71l14.42,3.45c.9,.2,1.14,1.34,.43,1.94l-11.81,9.5c-.17,.13-.3,.3-.33,.47-.23,.54,.03,1.24,.67,1.44l18.16,5.82c.6,.17,.9,.8,.74,1.37l-4.98,15.96c-.27,.87,.57,1.71,1.44,1.37l13.21-4.92,2.68-1c.54-.2,1.14,.03,1.37,.54l5.12,10.2c.27,.54,.94,.77,1.47,.5l9.97-5.02c.6-.3,1.3,0,1.54,.64l6.89,20.77c.23,.7,1.07,.97,1.67,.57l12.14-7.83c.64-.43,1.51-.07,1.67,.67l5.39,23.85c.17,.7,.94,1.04,1.57,.74l21.94-10.97,.07-.03c.5-.27,1.14-.1,1.44,.37l6.46,10.07c.4,.6,1.24,.7,1.74,.17l12.04-12.78c.43-.47,1.17-.47,1.61,0l11.47,12.18c.64,.67,1.74,.3,1.91-.6l2.01-12.58c.1-.74,.87-1.14,1.54-.84l11.21,5.15c1.04,.47,2.04-.74,1.37-1.64-2.27-3.08-5.49-7.66-7.26-11.44-1.67-3.71-2.04-6.62,1.14-6.62,3.41-.03,6.29-.57,8.56-1.24,1.64-.43,2.91-.97,3.85-1.4,.77-.33,.84-1.37,.17-1.87l-4.18-3.11-3.38-2.48-3.78-2.81c-.64-.43-.6-1.37,0-1.81l6.16-4.32,8.26-5.75c.7-.5,.6-1.57-.2-1.91l-12.08-5.39c-.17-.07-.3-.17-.4-.3-.13-.17-.23-.4-.27-.64l-.3-4.75-.6-9.94c-.03-.77-.8-1.24-1.51-.97l-12.98,5.02c-.6,.23-1.24-.07-1.44-.67l-1.37-3.75-5.69-15.69c-.13-.4-.5-.7-.94-.74l-9.67-.9-6.66-.64c-.77-.07-1.24-.9-.9-1.61l2.17-4.48,5.29-10.84c.37-.77-.2-1.61-1.04-1.61l-13.82,.5-8.03,.27c-.7,.03-1.27-.6-1.14-1.3l.84-5.02,2.21-13.25c.1-.6-.3-1.17-.9-1.27l-23.75-3.98c-.6-.1-1-.64-.94-1.24l1.97-15.45c.1-.8-.64-1.44-1.37-1.24l-9.83,2.78Z"/>
    <polyline class="cls-13" points="135.22 241.99 135.22 230.79 142.34 235.1"/>
    <polyline class="cls-13" points="215.07 329.47 224.77 326.49 224.77 325.99 224.77 316.76"/>
    <polyline class="cls-13" points="138.76 294.82 126.79 296.55 132.77 283.44"/>
    <polyline class="cls-13" points="167.6 255.37 172.88 253.27 174.05 252.8 174.49 254.27 177.57 264.51 177.6 264.64"/>
    <polyline class="cls-13" points="199.95 280.56 213.33 277.96 208.38 288.89"/>
    <polyline class="cls-13" points="172.58 305.89 171.85 307.49 167.6 316.76 182.48 316.76"/>
    <path class="cls-14" d="M415.18,166.89s29.54-25.46,63.19-9.94c33.65,15.56,72.52,15.56,72.52,15.56,0,0-81.59,75.43-104.91,80.29-1.91,.4-3.81,.64-5.69,.77-13.41,.9-25.83-4.62-33.08-8.73-4.15-2.38-6.59-4.28-6.59-4.28,0,0,7.06-75.37,14.55-73.66Z"/>
    <path class="cls-14" d="M253.77,58.88s.8-46.3-53.82-56.67c-54.59-10.34-101.43,49.01-108.75,49.88,14.25,9.5,52.45,23.28,73.8,18.77,3.31-.7,.67,9.6,1.1,12.95"/>
  </g>
</svg>